<svg xmlns="http://www.w3.org/2000/svg" viewBox="0 0 278 277" width="278" height="277"><defs></defs><g transform="matrix(1,0,0,1,0,-0.631028816)">
<g>
	<g>
		<g>
			<g transform="matrix(0.659899602,0,0,0.646823099,-33.444838213,10.051180131)">
				<g>
					<g>
						<g>
							<path d="M91.912732,77.221763C87.298261,88.428336 72.513119,90.405966 69.782105,97.657278 C76.46838,103.307651 76.656725,108.392986 80.046949,109.993925 C87.392434,105.661973 101.141675,91.065176 91.912732,77.221763 Z" fill="#000000" stroke="#000000"/>
						</g>
						<g transform="matrix(1,0,0,1,0,24)">
							<path d="M91.912732,77.221763C87.298261,88.428336 72.513119,90.405966 69.782105,97.657278 C76.46838,103.307651 76.656725,108.392986 80.046949,109.993925 C87.392434,105.661973 101.141675,91.065176 91.912732,77.221763 Z" fill="#000000" stroke="#000000"/>
						</g>
						<g transform="matrix(1,0,0,1,0,48)">
							<path d="M91.912732,77.221763C87.298261,88.428336 72.513119,90.405966 69.782105,97.657278 C76.46838,103.307651 76.656725,108.392986 80.046949,109.993925 C87.392434,105.661973 101.141675,91.065176 91.912732,77.221763 Z" fill="#000000" stroke="#000000"/>
						</g>
						<g transform="matrix(1,0,0,1,0,72)">
							<path d="M91.912732,77.221763C87.298261,88.428336 72.513119,90.405966 69.782105,97.657278 C76.46838,103.307651 76.656725,108.392986 80.046949,109.993925 C87.392434,105.661973 101.141675,91.065176 91.912732,77.221763 Z" fill="#000000" stroke="#000000"/>
						</g>
					</g>
					<g>
						<g>
							<path d="M53.526054,87.580426C63.735629,101.790642 63.735629,91.791209 76.538043,111.519638 C74.135814,113.392723 69.414789,115.782593 67.649075,119.821967 C62.21995,118.179825 43.653686,101.456781 53.526054,87.580426 Z" fill="#000000" stroke="#000000" stroke-width="2"/>
						</g>
						<g transform="matrix(1,0,0,1,0,24)">
							<path d="M53.526054,87.580426C63.735629,101.790642 63.735629,91.791209 76.538043,111.519638 C74.135814,113.392723 69.414789,115.782593 67.649075,119.821967 C62.21995,118.179825 43.653686,101.456781 53.526054,87.580426 Z" fill="#000000" stroke="#000000" stroke-width="2"/>
						</g>
						<g transform="matrix(1,0,0,1,0,48)">
							<path d="M53.526054,87.580426C63.735629,101.790642 63.735629,91.791209 76.538043,111.519638 C74.135814,113.392723 69.414789,115.782593 67.649075,119.821967 C62.21995,118.179825 43.653686,101.456781 53.526054,87.580426 Z" fill="#000000" stroke="#000000" stroke-width="2"/>
						</g>
						<g transform="matrix(1,0,0,1,0,72)">
							<path d="M53.526054,87.580426C63.735629,101.790642 63.735629,91.791209 76.538043,111.519638 C74.135814,113.392723 69.414789,115.782593 67.649075,119.821967 C62.21995,118.179825 43.653686,101.456781 53.526054,87.580426 Z" fill="#000000" stroke="#000000" stroke-width="2"/>
						</g>
					</g>
				</g>
				<g transform="matrix(1,0,0,1,0,72)">
					<g>
						<g>
							<path d="M91.912732,77.221763C87.298261,88.428336 72.513119,90.405966 69.782105,97.657278 C76.46838,103.307651 76.656725,108.392986 80.046949,109.993925 C87.392434,105.661973 101.141675,91.065176 91.912732,77.221763 Z" fill="#000000" stroke="#000000"/>
						</g>
						<g transform="matrix(1,0,0,1,0,24)">
							<path d="M91.912732,77.221763C87.298261,88.428336 72.513119,90.405966 69.782105,97.657278 C76.46838,103.307651 76.656725,108.392986 80.046949,109.993925 C87.392434,105.661973 101.141675,91.065176 91.912732,77.221763 Z" fill="#000000" stroke="#000000"/>
						</g>
						<g transform="matrix(1,0,0,1,0,48)">
							<path d="M91.912732,77.221763C87.298261,88.428336 72.513119,90.405966 69.782105,97.657278 C76.46838,103.307651 76.656725,108.392986 80.046949,109.993925 C87.392434,105.661973 101.141675,91.065176 91.912732,77.221763 Z" fill="#000000" stroke="#000000"/>
						</g>
						<g transform="matrix(1,0,0,1,0,72)">
							<path d="M91.912732,77.221763C87.298261,88.428336 72.513119,90.405966 69.782105,97.657278 C76.46838,103.307651 76.656725,108.392986 80.046949,109.993925 C87.392434,105.661973 101.141675,91.065176 91.912732,77.221763 Z" fill="#000000" stroke="#000000"/>
						</g>
					</g>
					<g>
						<g>
							<path d="M53.526054,87.580426C63.735629,101.790642 63.735629,91.791209 76.538043,111.519638 C74.135814,113.392723 69.414789,115.782593 67.649075,119.821967 C62.21995,118.179825 43.653686,101.456781 53.526054,87.580426 Z" fill="#000000" stroke="#000000" stroke-width="2"/>
						</g>
						<g transform="matrix(1,0,0,1,0,24)">
							<path d="M53.526054,87.580426C63.735629,101.790642 63.735629,91.791209 76.538043,111.519638 C74.135814,113.392723 69.414789,115.782593 67.649075,119.821967 C62.21995,118.179825 43.653686,101.456781 53.526054,87.580426 Z" fill="#000000" stroke="#000000" stroke-width="2"/>
						</g>
						<g transform="matrix(1,0,0,1,0,48)">
							<path d="M53.526054,87.580426C63.735629,101.790642 63.735629,91.791209 76.538043,111.519638 C74.135814,113.392723 69.414789,115.782593 67.649075,119.821967 C62.21995,118.179825 43.653686,101.456781 53.526054,87.580426 Z" fill="#000000" stroke="#000000" stroke-width="2"/>
						</g>
						<g transform="matrix(1,0,0,1,0,72)">
							<path d="M53.526054,87.580426C63.735629,101.790642 63.735629,91.791209 76.538043,111.519638 C74.135814,113.392723 69.414789,115.782593 67.649075,119.821967 C62.21995,118.179825 43.653686,101.456781 53.526054,87.580426 Z" fill="#000000" stroke="#000000" stroke-width="2"/>
						</g>
					</g>
				</g>
			</g>
			<g transform="matrix(0.659899602,0,0,0.646823099,-33.444838213,10.051180131)">
				<path d="M91.30212,285.150136C97.050309,269.756092 83.164712,255.897338 79.580435,257.986903 C59.653572,269.603883 81.087509,265.162097 66.686582,283.783432 C58.382993,294.520513 67.021488,321.538617 67.021488,321.538617 C82.45955,289.119112 84.604014,303.088119 91.30212,285.150136 Z" transform="matrix(1,0,0,1,0,0)" fill="#000000" stroke="#000000" stroke-miterlimit="9"/>
			</g>
		</g>
		<g>
			<g transform="matrix(-0.646823099,0,0,-0.646823099,310.811883618,267.97860472)">
				<g>
					<g>
						<g>
							<path d="M91.912732,77.221763C87.298261,88.428336 72.513119,90.405966 69.782105,97.657278 C76.46838,103.307651 76.656725,108.392986 80.046949,109.993925 C87.392434,105.661973 101.141675,91.065176 91.912732,77.221763 Z" fill="#000000" stroke="#000000"/>
						</g>
						<g transform="matrix(1,0,0,1,0,24)">
							<path d="M91.912732,77.221763C87.298261,88.428336 72.513119,90.405966 69.782105,97.657278 C76.46838,103.307651 76.656725,108.392986 80.046949,109.993925 C87.392434,105.661973 101.141675,91.065176 91.912732,77.221763 Z" fill="#000000" stroke="#000000"/>
						</g>
						<g transform="matrix(1,0,0,1,0,48)">
							<path d="M91.912732,77.221763C87.298261,88.428336 72.513119,90.405966 69.782105,97.657278 C76.46838,103.307651 76.656725,108.392986 80.046949,109.993925 C87.392434,105.661973 101.141675,91.065176 91.912732,77.221763 Z" fill="#000000" stroke="#000000"/>
						</g>
						<g transform="matrix(1,0,0,1,0,72)">
							<path d="M91.912732,77.221763C87.298261,88.428336 72.513119,90.405966 69.782105,97.657278 C76.46838,103.307651 76.656725,108.392986 80.046949,109.993925 C87.392434,105.661973 101.141675,91.065176 91.912732,77.221763 Z" fill="#000000" stroke="#000000"/>
						</g>
					</g>
					<g>
						<g>
							<path d="M53.526054,87.580426C63.735629,101.790642 63.735629,91.791209 76.538043,111.519638 C74.135814,113.392723 69.414789,115.782593 67.649075,119.821967 C62.21995,118.179825 43.653686,101.456781 53.526054,87.580426 Z" fill="#000000" stroke="#000000" stroke-width="2"/>
						</g>
						<g transform="matrix(1,0,0,1,0,24)">
							<path d="M53.526054,87.580426C63.735629,101.790642 63.735629,91.791209 76.538043,111.519638 C74.135814,113.392723 69.414789,115.782593 67.649075,119.821967 C62.21995,118.179825 43.653686,101.456781 53.526054,87.580426 Z" fill="#000000" stroke="#000000" stroke-width="2"/>
						</g>
						<g transform="matrix(1,0,0,1,0,48)">
							<path d="M53.526054,87.580426C63.735629,101.790642 63.735629,91.791209 76.538043,111.519638 C74.135814,113.392723 69.414789,115.782593 67.649075,119.821967 C62.21995,118.179825 43.653686,101.456781 53.526054,87.580426 Z" fill="#000000" stroke="#000000" stroke-width="2"/>
						</g>
						<g transform="matrix(1,0,0,1,0,72)">
							<path d="M53.526054,87.580426C63.735629,101.790642 63.735629,91.791209 76.538043,111.519638 C74.135814,113.392723 69.414789,115.782593 67.649075,119.821967 C62.21995,118.179825 43.653686,101.456781 53.526054,87.580426 Z" fill="#000000" stroke="#000000" stroke-width="2"/>
						</g>
					</g>
				</g>
				<g transform="matrix(1,0,0,1,0,72)">
					<g>
						<g>
							<path d="M91.912732,77.221763C87.298261,88.428336 72.513119,90.405966 69.782105,97.657278 C76.46838,103.307651 76.656725,108.392986 80.046949,109.993925 C87.392434,105.661973 101.141675,91.065176 91.912732,77.221763 Z" fill="#000000" stroke="#000000"/>
						</g>
						<g transform="matrix(1,0,0,1,0,24)">
							<path d="M91.912732,77.221763C87.298261,88.428336 72.513119,90.405966 69.782105,97.657278 C76.46838,103.307651 76.656725,108.392986 80.046949,109.993925 C87.392434,105.661973 101.141675,91.065176 91.912732,77.221763 Z" fill="#000000" stroke="#000000"/>
						</g>
						<g transform="matrix(1,0,0,1,0,48)">
							<path d="M91.912732,77.221763C87.298261,88.428336 72.513119,90.405966 69.782105,97.657278 C76.46838,103.307651 76.656725,108.392986 80.046949,109.993925 C87.392434,105.661973 101.141675,91.065176 91.912732,77.221763 Z" fill="#000000" stroke="#000000"/>
						</g>
						<g transform="matrix(1,0,0,1,0,72)">
							<path d="M91.912732,77.221763C87.298261,88.428336 72.513119,90.405966 69.782105,97.657278 C76.46838,103.307651 76.656725,108.392986 80.046949,109.993925 C87.392434,105.661973 101.141675,91.065176 91.912732,77.221763 Z" fill="#000000" stroke="#000000"/>
						</g>
					</g>
					<g>
						<g>
							<path d="M53.526054,87.580426C63.735629,101.790642 63.735629,91.791209 76.538043,111.519638 C74.135814,113.392723 69.414789,115.782593 67.649075,119.821967 C62.21995,118.179825 43.653686,101.456781 53.526054,87.580426 Z" fill="#000000" stroke="#000000" stroke-width="2"/>
						</g>
						<g transform="matrix(1,0,0,1,0,24)">
							<path d="M53.526054,87.580426C63.735629,101.790642 63.735629,91.791209 76.538043,111.519638 C74.135814,113.392723 69.414789,115.782593 67.649075,119.821967 C62.21995,118.179825 43.653686,101.456781 53.526054,87.580426 Z" fill="#000000" stroke="#000000" stroke-width="2"/>
						</g>
						<g transform="matrix(1,0,0,1,0,48)">
							<path d="M53.526054,87.580426C63.735629,101.790642 63.735629,91.791209 76.538043,111.519638 C74.135814,113.392723 69.414789,115.782593 67.649075,119.821967 C62.21995,118.179825 43.653686,101.456781 53.526054,87.580426 Z" fill="#000000" stroke="#000000" stroke-width="2"/>
						</g>
						<g transform="matrix(1,0,0,1,0,72)">
							<path d="M53.526054,87.580426C63.735629,101.790642 63.735629,91.791209 76.538043,111.519638 C74.135814,113.392723 69.414789,115.782593 67.649075,119.821967 C62.21995,118.179825 43.653686,101.456781 53.526054,87.580426 Z" fill="#000000" stroke="#000000" stroke-width="2"/>
						</g>
					</g>
				</g>
			</g>
			<g transform="matrix(-0.646823099,0,0,-0.646823099,310.811883618,267.97860472)">
				<path d="M91.30212,285.150136C97.050309,269.756092 83.164712,255.897338 79.580435,257.986903 C59.653572,269.603883 81.087509,265.162097 66.686582,283.783432 C58.382993,294.520513 67.021488,321.538617 67.021488,321.538617 C82.45955,289.119112 84.604014,303.088119 91.30212,285.150136 Z" transform="matrix(1,0,0,1,0,0)" fill="#000000" stroke="#000000" stroke-miterlimit="9"/>
			</g>
		</g>
		<g>
			<g transform="matrix(0,-0.646823099,0.646823099,0,10.051180131,310.811883618)">
				<g>
					<g>
						<g>
							<path d="M91.912732,77.221763C87.298261,88.428336 72.513119,90.405966 69.782105,97.657278 C76.46838,103.307651 76.656725,108.392986 80.046949,109.993925 C87.392434,105.661973 101.141675,91.065176 91.912732,77.221763 Z" fill="#000000" stroke="#000000"/>
						</g>
						<g transform="matrix(1,0,0,1,0,24)">
							<path d="M91.912732,77.221763C87.298261,88.428336 72.513119,90.405966 69.782105,97.657278 C76.46838,103.307651 76.656725,108.392986 80.046949,109.993925 C87.392434,105.661973 101.141675,91.065176 91.912732,77.221763 Z" fill="#000000" stroke="#000000"/>
						</g>
						<g transform="matrix(1,0,0,1,0,48)">
							<path d="M91.912732,77.221763C87.298261,88.428336 72.513119,90.405966 69.782105,97.657278 C76.46838,103.307651 76.656725,108.392986 80.046949,109.993925 C87.392434,105.661973 101.141675,91.065176 91.912732,77.221763 Z" fill="#000000" stroke="#000000"/>
						</g>
						<g transform="matrix(1,0,0,1,0,72)">
							<path d="M91.912732,77.221763C87.298261,88.428336 72.513119,90.405966 69.782105,97.657278 C76.46838,103.307651 76.656725,108.392986 80.046949,109.993925 C87.392434,105.661973 101.141675,91.065176 91.912732,77.221763 Z" fill="#000000" stroke="#000000"/>
						</g>
					</g>
					<g>
						<g>
							<path d="M53.526054,87.580426C63.735629,101.790642 63.735629,91.791209 76.538043,111.519638 C74.135814,113.392723 69.414789,115.782593 67.649075,119.821967 C62.21995,118.179825 43.653686,101.456781 53.526054,87.580426 Z" fill="#000000" stroke="#000000" stroke-width="2"/>
						</g>
						<g transform="matrix(1,0,0,1,0,24)">
							<path d="M53.526054,87.580426C63.735629,101.790642 63.735629,91.791209 76.538043,111.519638 C74.135814,113.392723 69.414789,115.782593 67.649075,119.821967 C62.21995,118.179825 43.653686,101.456781 53.526054,87.580426 Z" fill="#000000" stroke="#000000" stroke-width="2"/>
						</g>
						<g transform="matrix(1,0,0,1,0,48)">
							<path d="M53.526054,87.580426C63.735629,101.790642 63.735629,91.791209 76.538043,111.519638 C74.135814,113.392723 69.414789,115.782593 67.649075,119.821967 C62.21995,118.179825 43.653686,101.456781 53.526054,87.580426 Z" fill="#000000" stroke="#000000" stroke-width="2"/>
						</g>
						<g transform="matrix(1,0,0,1,0,72)">
							<path d="M53.526054,87.580426C63.735629,101.790642 63.735629,91.791209 76.538043,111.519638 C74.135814,113.392723 69.414789,115.782593 67.649075,119.821967 C62.21995,118.179825 43.653686,101.456781 53.526054,87.580426 Z" fill="#000000" stroke="#000000" stroke-width="2"/>
						</g>
					</g>
				</g>
				<g transform="matrix(1,0,0,1,0,72)">
					<g>
						<g>
							<path d="M91.912732,77.221763C87.298261,88.428336 72.513119,90.405966 69.782105,97.657278 C76.46838,103.307651 76.656725,108.392986 80.046949,109.993925 C87.392434,105.661973 101.141675,91.065176 91.912732,77.221763 Z" fill="#000000" stroke="#000000"/>
						</g>
						<g transform="matrix(1,0,0,1,0,24)">
							<path d="M91.912732,77.221763C87.298261,88.428336 72.513119,90.405966 69.782105,97.657278 C76.46838,103.307651 76.656725,108.392986 80.046949,109.993925 C87.392434,105.661973 101.141675,91.065176 91.912732,77.221763 Z" fill="#000000" stroke="#000000"/>
						</g>
						<g transform="matrix(1,0,0,1,0,48)">
							<path d="M91.912732,77.221763C87.298261,88.428336 72.513119,90.405966 69.782105,97.657278 C76.46838,103.307651 76.656725,108.392986 80.046949,109.993925 C87.392434,105.661973 101.141675,91.065176 91.912732,77.221763 Z" fill="#000000" stroke="#000000"/>
						</g>
						<g transform="matrix(1,0,0,1,0,72)">
							<path d="M91.912732,77.221763C87.298261,88.428336 72.513119,90.405966 69.782105,97.657278 C76.46838,103.307651 76.656725,108.392986 80.046949,109.993925 C87.392434,105.661973 101.141675,91.065176 91.912732,77.221763 Z" fill="#000000" stroke="#000000"/>
						</g>
					</g>
					<g>
						<g>
							<path d="M53.526054,87.580426C63.735629,101.790642 63.735629,91.791209 76.538043,111.519638 C74.135814,113.392723 69.414789,115.782593 67.649075,119.821967 C62.21995,118.179825 43.653686,101.456781 53.526054,87.580426 Z" fill="#000000" stroke="#000000" stroke-width="2"/>
						</g>
						<g transform="matrix(1,0,0,1,0,24)">
							<path d="M53.526054,87.580426C63.735629,101.790642 63.735629,91.791209 76.538043,111.519638 C74.135814,113.392723 69.414789,115.782593 67.649075,119.821967 C62.21995,118.179825 43.653686,101.456781 53.526054,87.580426 Z" fill="#000000" stroke="#000000" stroke-width="2"/>
						</g>
						<g transform="matrix(1,0,0,1,0,48)">
							<path d="M53.526054,87.580426C63.735629,101.790642 63.735629,91.791209 76.538043,111.519638 C74.135814,113.392723 69.414789,115.782593 67.649075,119.821967 C62.21995,118.179825 43.653686,101.456781 53.526054,87.580426 Z" fill="#000000" stroke="#000000" stroke-width="2"/>
						</g>
						<g transform="matrix(1,0,0,1,0,72)">
							<path d="M53.526054,87.580426C63.735629,101.790642 63.735629,91.791209 76.538043,111.519638 C74.135814,113.392723 69.414789,115.782593 67.649075,119.821967 C62.21995,118.179825 43.653686,101.456781 53.526054,87.580426 Z" fill="#000000" stroke="#000000" stroke-width="2"/>
						</g>
					</g>
				</g>
			</g>
			<g transform="matrix(0,-0.646823099,0.646823099,0,10.051180131,310.811883618)">
				<path d="M91.30212,285.150136C97.050309,269.756092 83.164712,255.897338 79.580435,257.986903 C59.653572,269.603883 81.087509,265.162097 66.686582,283.783432 C58.382993,294.520513 67.021488,321.538617 67.021488,321.538617 C82.45955,289.119112 84.604014,303.088119 91.30212,285.150136 Z" transform="matrix(1,0,0,1,0,0)" fill="#000000" stroke="#000000" stroke-miterlimit="9"/>
			</g>
		</g>
		<g>
			<g transform="matrix(0,0.646823099,-0.646823099,0,267.97860472,-32.151069952)">
				<g>
					<g>
						<g>
							<path d="M91.912732,77.221763C87.298261,88.428336 72.513119,90.405966 69.782105,97.657278 C76.46838,103.307651 76.656725,108.392986 80.046949,109.993925 C87.392434,105.661973 101.141675,91.065176 91.912732,77.221763 Z" fill="#000000" stroke="#000000"/>
						</g>
						<g transform="matrix(1,0,0,1,0,24)">
							<path d="M91.912732,77.221763C87.298261,88.428336 72.513119,90.405966 69.782105,97.657278 C76.46838,103.307651 76.656725,108.392986 80.046949,109.993925 C87.392434,105.661973 101.141675,91.065176 91.912732,77.221763 Z" fill="#000000" stroke="#000000"/>
						</g>
						<g transform="matrix(1,0,0,1,0,48)">
							<path d="M91.912732,77.221763C87.298261,88.428336 72.513119,90.405966 69.782105,97.657278 C76.46838,103.307651 76.656725,108.392986 80.046949,109.993925 C87.392434,105.661973 101.141675,91.065176 91.912732,77.221763 Z" fill="#000000" stroke="#000000"/>
						</g>
						<g transform="matrix(1,0,0,1,0,72)">
							<path d="M91.912732,77.221763C87.298261,88.428336 72.513119,90.405966 69.782105,97.657278 C76.46838,103.307651 76.656725,108.392986 80.046949,109.993925 C87.392434,105.661973 101.141675,91.065176 91.912732,77.221763 Z" fill="#000000" stroke="#000000"/>
						</g>
					</g>
					<g>
						<g>
							<path d="M53.526054,87.580426C63.735629,101.790642 63.735629,91.791209 76.538043,111.519638 C74.135814,113.392723 69.414789,115.782593 67.649075,119.821967 C62.21995,118.179825 43.653686,101.456781 53.526054,87.580426 Z" fill="#000000" stroke="#000000" stroke-width="2"/>
						</g>
						<g transform="matrix(1,0,0,1,0,24)">
							<path d="M53.526054,87.580426C63.735629,101.790642 63.735629,91.791209 76.538043,111.519638 C74.135814,113.392723 69.414789,115.782593 67.649075,119.821967 C62.21995,118.179825 43.653686,101.456781 53.526054,87.580426 Z" fill="#000000" stroke="#000000" stroke-width="2"/>
						</g>
						<g transform="matrix(1,0,0,1,0,48)">
							<path d="M53.526054,87.580426C63.735629,101.790642 63.735629,91.791209 76.538043,111.519638 C74.135814,113.392723 69.414789,115.782593 67.649075,119.821967 C62.21995,118.179825 43.653686,101.456781 53.526054,87.580426 Z" fill="#000000" stroke="#000000" stroke-width="2"/>
						</g>
						<g transform="matrix(1,0,0,1,0,72)">
							<path d="M53.526054,87.580426C63.735629,101.790642 63.735629,91.791209 76.538043,111.519638 C74.135814,113.392723 69.414789,115.782593 67.649075,119.821967 C62.21995,118.179825 43.653686,101.456781 53.526054,87.580426 Z" fill="#000000" stroke="#000000" stroke-width="2"/>
						</g>
					</g>
				</g>
				<g transform="matrix(1,0,0,1,0,72)">
					<g>
						<g>
							<path d="M91.912732,77.221763C87.298261,88.428336 72.513119,90.405966 69.782105,97.657278 C76.46838,103.307651 76.656725,108.392986 80.046949,109.993925 C87.392434,105.661973 101.141675,91.065176 91.912732,77.221763 Z" fill="#000000" stroke="#000000"/>
						</g>
						<g transform="matrix(1,0,0,1,0,24)">
							<path d="M91.912732,77.221763C87.298261,88.428336 72.513119,90.405966 69.782105,97.657278 C76.46838,103.307651 76.656725,108.392986 80.046949,109.993925 C87.392434,105.661973 101.141675,91.065176 91.912732,77.221763 Z" fill="#000000" stroke="#000000"/>
						</g>
						<g transform="matrix(1,0,0,1,0,48)">
							<path d="M91.912732,77.221763C87.298261,88.428336 72.513119,90.405966 69.782105,97.657278 C76.46838,103.307651 76.656725,108.392986 80.046949,109.993925 C87.392434,105.661973 101.141675,91.065176 91.912732,77.221763 Z" fill="#000000" stroke="#000000"/>
						</g>
						<g transform="matrix(1,0,0,1,0,72)">
							<path d="M91.912732,77.221763C87.298261,88.428336 72.513119,90.405966 69.782105,97.657278 C76.46838,103.307651 76.656725,108.392986 80.046949,109.993925 C87.392434,105.661973 101.141675,91.065176 91.912732,77.221763 Z" fill="#000000" stroke="#000000"/>
						</g>
					</g>
					<g>
						<g>
							<path d="M53.526054,87.580426C63.735629,101.790642 63.735629,91.791209 76.538043,111.519638 C74.135814,113.392723 69.414789,115.782593 67.649075,119.821967 C62.21995,118.179825 43.653686,101.456781 53.526054,87.580426 Z" fill="#000000" stroke="#000000" stroke-width="2"/>
						</g>
						<g transform="matrix(1,0,0,1,0,24)">
							<path d="M53.526054,87.580426C63.735629,101.790642 63.735629,91.791209 76.538043,111.519638 C74.135814,113.392723 69.414789,115.782593 67.649075,119.821967 C62.21995,118.179825 43.653686,101.456781 53.526054,87.580426 Z" fill="#000000" stroke="#000000" stroke-width="2"/>
						</g>
						<g transform="matrix(1,0,0,1,0,48)">
							<path d="M53.526054,87.580426C63.735629,101.790642 63.735629,91.791209 76.538043,111.519638 C74.135814,113.392723 69.414789,115.782593 67.649075,119.821967 C62.21995,118.179825 43.653686,101.456781 53.526054,87.580426 Z" fill="#000000" stroke="#000000" stroke-width="2"/>
						</g>
						<g transform="matrix(1,0,0,1,0,72)">
							<path d="M53.526054,87.580426C63.735629,101.790642 63.735629,91.791209 76.538043,111.519638 C74.135814,113.392723 69.414789,115.782593 67.649075,119.821967 C62.21995,118.179825 43.653686,101.456781 53.526054,87.580426 Z" fill="#000000" stroke="#000000" stroke-width="2"/>
						</g>
					</g>
				</g>
			</g>
			<g transform="matrix(0,0.646823099,-0.646823099,0,267.97860472,-32.151069952)">
				<path d="M91.30212,285.150136C97.050309,269.756092 83.164712,255.897338 79.580435,257.986903 C59.653572,269.603883 81.087509,265.162097 66.686582,283.783432 C58.382993,294.520513 67.021488,321.538617 67.021488,321.538617 C82.45955,289.119112 84.604014,303.088119 91.30212,285.150136 Z" transform="matrix(1,0,0,1,0,0)" fill="#000000" stroke="#000000" stroke-miterlimit="9"/>
			</g>
		</g>
	</g>
</g></g></svg>