<svg xmlns="http://www.w3.org/2000/svg" viewBox="0 0 399 400" width="399" height="400"><defs></defs><g transform="matrix(1,0,0,1,0,0)">
<g>
	<g>
		<g>
			<g>
				<g transform="matrix(1,0,0,1,71.375674864,-151.211011134)">
					<g>
						<path d="M124.029029,153.271267C125.517682,153.226811 130.949304,152.96836 133.092958,154.016886 C134.637312,154.772276 131.834726,159.026512 131.019206,159.399322 C130.001582,159.864521 122.594475,159.678038 122.630994,158.234292 C122.690002,155.901509 122.258974,153.324127 124.029029,153.271267 Z" fill="#222222" stroke="#000000" stroke-width="0.5"/>
					</g>
					<g>
						<path d="M133.806338,154.417148L 134.254447,154.417148 L 134.254447,155.571737 L 133.806338,155.571737 L 133.806338,154.417148 Z" fill="#000000" stroke="#000000" stroke-width="0.5"/>
					</g>
				</g>
				<g transform="matrix(-1,0,0,1,339.884568604,-151.211011134)">
					<g>
						<path d="M124.029029,153.271267C125.517682,153.226811 130.949304,152.96836 133.092958,154.016886 C134.637312,154.772276 131.834726,159.026512 131.019206,159.399322 C130.001582,159.864521 122.594475,159.678038 122.630994,158.234292 C122.690002,155.901509 122.258974,153.324127 124.029029,153.271267 Z" fill="#222222" stroke="#000000" stroke-width="0.5"/>
					</g>
					<g>
						<path d="M133.806338,154.417148L 134.254447,154.417148 L 134.254447,155.571737 L 133.806338,155.571737 L 133.806338,154.417148 Z" fill="#000000" stroke="#000000" stroke-width="0.5"/>
					</g>
				</g>
			</g>
			<g>
				<g transform="matrix(1,0,0,1,13.038825679,-135.258646689)">
					<g>
						<path d="M156.991283,145.258647C156.991283,145.258647 147.456024,139.976095 151.663159,136.862815 C154.354131,134.871496 156.506908,138.585037 156.506908,138.585037 C156.506908,138.585037 158.597418,135.363976 161.118794,136.92213 C165.908723,139.882199 156.991283,145.258647 156.991283,145.258647 Z" transform="matrix(1,0,0,1,0,0)" fill="#252525" stroke="#000000" stroke-width="0.5"/>
					</g>
					<g>
						<path d="M162.523147,138.850962C162.523147,138.850962 163.521803,138.850962 163.521803,138.850962 " fill="none" stroke="#000000" stroke-width="0.5"/>
					</g>
				</g>
				<g transform="matrix(-1,0,0,1,340.082431331,-135.258646689)">
					<g>
						<path d="M156.991283,145.258647C156.991283,145.258647 147.456024,139.976095 151.663159,136.862815 C154.354131,134.871496 156.506908,138.585037 156.506908,138.585037 C156.506908,138.585037 158.597418,135.363976 161.118794,136.92213 C165.908723,139.882199 156.991283,145.258647 156.991283,145.258647 Z" transform="matrix(1,0,0,1,0,0)" fill="#252525" stroke="#000000" stroke-width="0.5"/>
					</g>
					<g>
						<path d="M162.523147,138.850962C162.523147,138.850962 163.521803,138.850962 163.521803,138.850962 " fill="none" stroke="#000000" stroke-width="0.5"/>
					</g>
				</g>
			</g>
			<g>
				<g transform="matrix(1,0,0,1,-55.738573303,-72.775852108)">
					<g>
						<path d="M166.191283,74.413607C169.755205,74.399077 173.185144,75.083517 171.416581,79.076181 C170.561248,81.007162 167.879456,83.149234 165.253409,82.720492 C161.057454,82.035438 161.06138,79.875519 161.314338,77.709565 C161.74308,74.038458 163.942716,74.422775 166.191283,74.413607 Z" fill="#000000" stroke="#000000"/>
					</g>
					<g>
						<path d="M171.893126,77.027709C171.893126,77.027709 173.481306,77.027185 173.481306,77.027185 " fill="none" stroke="#000000" stroke-width="0.5"/>
					</g>
				</g>
				<g transform="matrix(-1,0,0,1,291.224037954,-72.775852108)">
					<g>
						<path d="M166.191283,74.413607C169.755205,74.399077 173.185144,75.083517 171.416581,79.076181 C170.561248,81.007162 167.879456,83.149234 165.253409,82.720492 C161.057454,82.035438 161.06138,79.875519 161.314338,77.709565 C161.74308,74.038458 163.942716,74.422775 166.191283,74.413607 Z" fill="#000000" stroke="#000000"/>
					</g>
					<g>
						<path d="M171.893126,77.027709C171.893126,77.027709 173.481306,77.027185 173.481306,77.027185 " fill="none" stroke="#000000" stroke-width="0.5"/>
					</g>
				</g>
			</g>
			<g>
				<g transform="matrix(1,0,0,1,-55,-47)">
					<path d="M199.772739,48.543922C199.772739,48.543922 205.034491,48.543922 205.034491,48.543922 C205.034491,48.543922 213.606216,48.543922 213.606216,48.543922 C213.669834,48.639349 213.606216,53.543922 213.606216,53.543922 C213.606216,53.543922 212.733452,55.543922 212.606216,55.543922 C212.606216,55.543922 203.80723,55.543922 203.80723,55.543922 C203.80723,55.543922 203.393334,53.936547 202.403615,52.74747 C201.413896,53.936547 201,55.543922 201,55.543922 C201,55.543922 192.201013,55.543922 192.201013,55.543922 C192.073778,55.543922 191.201013,53.543922 191.201013,53.543922 C191.201013,53.543922 191.137395,48.639349 191.201013,48.543922 C191.201013,48.543922 199.772739,48.543922 199.772739,48.543922 L 199.772739,48.543922 Z" fill="none" stroke="#000000" stroke-width="0.5"/>
				</g>
				<g transform="matrix(1,0,0,1,-55,-47)">
					<path d="M193,50L 201,50 L 201,52 L 200,54 L 193,54 L 193,50 Z" transform="matrix(1,0,0,1,0,0)" fill="#00fff9" stroke="#000000" stroke-width="0.5" stroke-linejoin="bevel"/>
				</g>
				<g transform="matrix(1,0,0,1,-55,-47)">
					<path d="M205,50L 213,50 L 213,52 L 212,54 L 205,54 L 205,50 Z" transform="matrix(-1,0,0,1,417,0)" fill="#ff005f" stroke="#000000" stroke-width="0.5" stroke-linejoin="bevel"/>
				</g>
			</g>
			<g>
				<g transform="matrix(1,0,0,1,30.145753162,-72.780721074)">
					<g>
						<path d="M195.027419,73.61517C197.556124,73.61517 199.610194,75.66924 199.610194,78.197946 C199.610194,80.726651 197.556124,82.780721 195.027419,82.780721 C192.498713,82.780721 190.444643,80.726651 190.444643,78.197946 C190.444643,75.66924 192.498713,73.61517 195.027419,73.61517 Z" transform="matrix(1,0,0,1,0,0)" fill="none" stroke="#000000" stroke-width="0.5"/>
					</g>
					<g>
						<path d="M199.610194,78.197946C199.610194,78.197946 201.854247,78.197946 201.854247,78.197946 " fill="none" stroke="#000000" stroke-width="0.5"/>
					</g>
				</g>
				<g transform="matrix(-1,0,0,1,433.854246838,-72.780721074)">
					<g>
						<path d="M195.027419,73.61517C197.556124,73.61517 199.610194,75.66924 199.610194,78.197946 C199.610194,80.726651 197.556124,82.780721 195.027419,82.780721 C192.498713,82.780721 190.444643,80.726651 190.444643,78.197946 C190.444643,75.66924 192.498713,73.61517 195.027419,73.61517 Z" transform="matrix(1,0,0,1,0,0)" fill="none" stroke="#000000" stroke-width="0.5"/>
					</g>
					<g>
						<path d="M199.610194,78.197946C199.610194,78.197946 201.854247,78.197946 201.854247,78.197946 " fill="none" stroke="#000000" stroke-width="0.5"/>
					</g>
				</g>
			</g>
			<g>
				<g transform="matrix(1,0,0,1,28.06022556,-73)">
					<path d="M218.543064,74.920992C218.543064,74.920992 218.543064,79.115875 218.543064,79.115875 L 220,82 L 223,83 L 228,83 C229.939774,78.960496 229.939774,78.960496 232,83 L 237,83 L 240,82 L 241.336485,79.115875 C241.336485,79.115875 241.305937,74.920992 241.305937,74.920992 C241.305937,74.920992 218.543064,74.920992 218.543064,74.920992 Z" fill="none" stroke="#000000" stroke-width="0.5" stroke-linecap="round" stroke-linejoin="round"/>
				</g>
				<g transform="matrix(1,0,0,1,28.06022556,-73)">
					<g>
						<path d="M224,76.400987C224,76.400987 222,78.982343 222,78.982343 " transform="matrix(1,0,0,1,0,0.599013346)" fill="none" stroke="#000000" stroke-width="0.5" stroke-linecap="round"/>
					</g>
					<g>
						<path d="M226,76C226,76 223.000534,80 223.000534,80 " transform="matrix(1,0,0,1,0,0.599013346)" fill="none" stroke="#000000" stroke-width="0.5" stroke-linecap="round"/>
					</g>
					<g>
						<path d="M224,76.400987C224,76.400987 222,78.982343 222,78.982343 " transform="matrix(1,0,0,1,12.582852643,0.599013346)" fill="none" stroke="#000000" stroke-width="0.5" stroke-linecap="round"/>
					</g>
					<g>
						<path d="M226,76C226,76 223.000534,80 223.000534,80 " transform="matrix(1,0,0,1,12.582852643,0.599013346)" fill="none" stroke="#000000" stroke-width="0.5" stroke-linecap="round"/>
					</g>
				</g>
				<g transform="matrix(1,0,0,1,28.06022556,-73)">
					<path d="M218.543064,73.42396L 241.305937,73.42396 L 241.305937,74.920992 L 218.543064,74.920992 L 218.543064,73.42396 Z" transform="matrix(1,0,0,1,0,0)" fill="none" stroke="#000000" stroke-width="0.5"/>
				</g>
			</g>
			<g>
				<g transform="matrix(1,0,0,1,150.115431396,-151.211011134)">
					<g>
						<path d="M124.029029,153.271267C125.517682,153.226811 130.949304,152.96836 133.092958,154.016886 C134.637312,154.772276 131.834726,159.026512 131.019206,159.399322 C130.001582,159.864521 122.594475,159.678038 122.630994,158.234292 C122.690002,155.901509 122.258974,153.324127 124.029029,153.271267 Z" fill="#222222" stroke="#000000" stroke-width="0.5"/>
					</g>
					<g>
						<path d="M133.806338,154.417148L 134.254447,154.417148 L 134.254447,155.571737 L 133.806338,155.571737 L 133.806338,154.417148 Z" fill="#000000" stroke="#000000" stroke-width="0.5"/>
					</g>
				</g>
				<g transform="matrix(-1,0,0,1,418.624325136,-151.211011134)">
					<g>
						<path d="M124.029029,153.271267C125.517682,153.226811 130.949304,152.96836 133.092958,154.016886 C134.637312,154.772276 131.834726,159.026512 131.019206,159.399322 C130.001582,159.864521 122.594475,159.678038 122.630994,158.234292 C122.690002,155.901509 122.258974,153.324127 124.029029,153.271267 Z" fill="#222222" stroke="#000000" stroke-width="0.5"/>
					</g>
					<g>
						<path d="M133.806338,154.417148L 134.254447,154.417148 L 134.254447,155.571737 L 133.806338,155.571737 L 133.806338,154.417148 Z" fill="#000000" stroke="#000000" stroke-width="0.5"/>
					</g>
				</g>
			</g>
		</g>
		<g>
			<g transform="matrix(1,0,0,-1,-0.742732325,399.820661641)">
				<g transform="matrix(1,0,0,1,71.375674864,-151.211011134)">
					<g>
						<path d="M124.029029,153.271267C125.517682,153.226811 130.949304,152.96836 133.092958,154.016886 C134.637312,154.772276 131.834726,159.026512 131.019206,159.399322 C130.001582,159.864521 122.594475,159.678038 122.630994,158.234292 C122.690002,155.901509 122.258974,153.324127 124.029029,153.271267 Z" fill="#222222" stroke="#000000" stroke-width="0.5"/>
					</g>
					<g>
						<path d="M133.806338,154.417148L 134.254447,154.417148 L 134.254447,155.571737 L 133.806338,155.571737 L 133.806338,154.417148 Z" fill="#000000" stroke="#000000" stroke-width="0.5"/>
					</g>
				</g>
				<g transform="matrix(-1,0,0,1,339.884568604,-151.211011134)">
					<g>
						<path d="M124.029029,153.271267C125.517682,153.226811 130.949304,152.96836 133.092958,154.016886 C134.637312,154.772276 131.834726,159.026512 131.019206,159.399322 C130.001582,159.864521 122.594475,159.678038 122.630994,158.234292 C122.690002,155.901509 122.258974,153.324127 124.029029,153.271267 Z" fill="#222222" stroke="#000000" stroke-width="0.5"/>
					</g>
					<g>
						<path d="M133.806338,154.417148L 134.254447,154.417148 L 134.254447,155.571737 L 133.806338,155.571737 L 133.806338,154.417148 Z" fill="#000000" stroke="#000000" stroke-width="0.5"/>
					</g>
				</g>
			</g>
			<g transform="matrix(1,0,0,-1,-0.742732325,399.820661641)">
				<g transform="matrix(1,0,0,1,13.038825679,-135.258646689)">
					<g>
						<path d="M156.991283,145.258647C156.991283,145.258647 147.456024,139.976095 151.663159,136.862815 C154.354131,134.871496 156.506908,138.585037 156.506908,138.585037 C156.506908,138.585037 158.597418,135.363976 161.118794,136.92213 C165.908723,139.882199 156.991283,145.258647 156.991283,145.258647 Z" transform="matrix(1,0,0,1,0,0)" fill="#252525" stroke="#000000" stroke-width="0.5"/>
					</g>
					<g>
						<path d="M162.523147,138.850962C162.523147,138.850962 163.521803,138.850962 163.521803,138.850962 " fill="none" stroke="#000000" stroke-width="0.5"/>
					</g>
				</g>
				<g transform="matrix(-1,0,0,1,340.082431331,-135.258646689)">
					<g>
						<path d="M156.991283,145.258647C156.991283,145.258647 147.456024,139.976095 151.663159,136.862815 C154.354131,134.871496 156.506908,138.585037 156.506908,138.585037 C156.506908,138.585037 158.597418,135.363976 161.118794,136.92213 C165.908723,139.882199 156.991283,145.258647 156.991283,145.258647 Z" transform="matrix(1,0,0,1,0,0)" fill="#252525" stroke="#000000" stroke-width="0.5"/>
					</g>
					<g>
						<path d="M162.523147,138.850962C162.523147,138.850962 163.521803,138.850962 163.521803,138.850962 " fill="none" stroke="#000000" stroke-width="0.5"/>
					</g>
				</g>
			</g>
			<g transform="matrix(1,0,0,-1,-0.742732325,399.820661641)">
				<g transform="matrix(1,0,0,1,-55.738573303,-72.775852108)">
					<g>
						<path d="M166.191283,74.413607C169.755205,74.399077 173.185144,75.083517 171.416581,79.076181 C170.561248,81.007162 167.879456,83.149234 165.253409,82.720492 C161.057454,82.035438 161.06138,79.875519 161.314338,77.709565 C161.74308,74.038458 163.942716,74.422775 166.191283,74.413607 Z" fill="#000000" stroke="#000000"/>
					</g>
					<g>
						<path d="M171.893126,77.027709C171.893126,77.027709 173.481306,77.027185 173.481306,77.027185 " fill="none" stroke="#000000" stroke-width="0.5"/>
					</g>
				</g>
				<g transform="matrix(-1,0,0,1,291.224037954,-72.775852108)">
					<g>
						<path d="M166.191283,74.413607C169.755205,74.399077 173.185144,75.083517 171.416581,79.076181 C170.561248,81.007162 167.879456,83.149234 165.253409,82.720492 C161.057454,82.035438 161.06138,79.875519 161.314338,77.709565 C161.74308,74.038458 163.942716,74.422775 166.191283,74.413607 Z" fill="#000000" stroke="#000000"/>
					</g>
					<g>
						<path d="M171.893126,77.027709C171.893126,77.027709 173.481306,77.027185 173.481306,77.027185 " fill="none" stroke="#000000" stroke-width="0.5"/>
					</g>
				</g>
			</g>
			<g transform="matrix(1,0,0,-1,-0.742732325,399.820661641)">
				<g transform="matrix(1,0,0,1,-55,-47)">
					<path d="M199.772739,48.543922C199.772739,48.543922 205.034491,48.543922 205.034491,48.543922 C205.034491,48.543922 213.606216,48.543922 213.606216,48.543922 C213.669834,48.639349 213.606216,53.543922 213.606216,53.543922 C213.606216,53.543922 212.733452,55.543922 212.606216,55.543922 C212.606216,55.543922 203.80723,55.543922 203.80723,55.543922 C203.80723,55.543922 203.393334,53.936547 202.403615,52.74747 C201.413896,53.936547 201,55.543922 201,55.543922 C201,55.543922 192.201013,55.543922 192.201013,55.543922 C192.073778,55.543922 191.201013,53.543922 191.201013,53.543922 C191.201013,53.543922 191.137395,48.639349 191.201013,48.543922 C191.201013,48.543922 199.772739,48.543922 199.772739,48.543922 L 199.772739,48.543922 Z" fill="none" stroke="#000000" stroke-width="0.5"/>
				</g>
				<g transform="matrix(1,0,0,1,-55,-47)">
					<path d="M193,50L 201,50 L 201,52 L 200,54 L 193,54 L 193,50 Z" transform="matrix(1,0,0,1,0,0)" fill="#00fff9" stroke="#000000" stroke-width="0.5" stroke-linejoin="bevel"/>
				</g>
				<g transform="matrix(1,0,0,1,-55,-47)">
					<path d="M205,50L 213,50 L 213,52 L 212,54 L 205,54 L 205,50 Z" transform="matrix(-1,0,0,1,417,0)" fill="#ff005f" stroke="#000000" stroke-width="0.5" stroke-linejoin="bevel"/>
				</g>
			</g>
			<g transform="matrix(1,0,0,-1,-0.742732325,399.820661641)">
				<g transform="matrix(1,0,0,1,30.145753162,-72.780721074)">
					<g>
						<path d="M195.027419,73.61517C197.556124,73.61517 199.610194,75.66924 199.610194,78.197946 C199.610194,80.726651 197.556124,82.780721 195.027419,82.780721 C192.498713,82.780721 190.444643,80.726651 190.444643,78.197946 C190.444643,75.66924 192.498713,73.61517 195.027419,73.61517 Z" transform="matrix(1,0,0,1,0,0)" fill="none" stroke="#000000" stroke-width="0.5"/>
					</g>
					<g>
						<path d="M199.610194,78.197946C199.610194,78.197946 201.854247,78.197946 201.854247,78.197946 " fill="none" stroke="#000000" stroke-width="0.5"/>
					</g>
				</g>
				<g transform="matrix(-1,0,0,1,433.854246838,-72.780721074)">
					<g>
						<path d="M195.027419,73.61517C197.556124,73.61517 199.610194,75.66924 199.610194,78.197946 C199.610194,80.726651 197.556124,82.780721 195.027419,82.780721 C192.498713,82.780721 190.444643,80.726651 190.444643,78.197946 C190.444643,75.66924 192.498713,73.61517 195.027419,73.61517 Z" transform="matrix(1,0,0,1,0,0)" fill="none" stroke="#000000" stroke-width="0.5"/>
					</g>
					<g>
						<path d="M199.610194,78.197946C199.610194,78.197946 201.854247,78.197946 201.854247,78.197946 " fill="none" stroke="#000000" stroke-width="0.5"/>
					</g>
				</g>
			</g>
			<g transform="matrix(1,0,0,-1,-0.742732325,399.820661641)">
				<g transform="matrix(1,0,0,1,28.06022556,-73)">
					<path d="M218.543064,74.920992C218.543064,74.920992 218.543064,79.115875 218.543064,79.115875 L 220,82 L 223,83 L 228,83 C229.939774,78.960496 229.939774,78.960496 232,83 L 237,83 L 240,82 L 241.336485,79.115875 C241.336485,79.115875 241.305937,74.920992 241.305937,74.920992 C241.305937,74.920992 218.543064,74.920992 218.543064,74.920992 Z" fill="none" stroke="#000000" stroke-width="0.5" stroke-linecap="round" stroke-linejoin="round"/>
				</g>
				<g transform="matrix(1,0,0,1,28.06022556,-73)">
					<g>
						<path d="M224,76.400987C224,76.400987 222,78.982343 222,78.982343 " transform="matrix(1,0,0,1,0,0.599013346)" fill="none" stroke="#000000" stroke-width="0.5" stroke-linecap="round"/>
					</g>
					<g>
						<path d="M226,76C226,76 223.000534,80 223.000534,80 " transform="matrix(1,0,0,1,0,0.599013346)" fill="none" stroke="#000000" stroke-width="0.5" stroke-linecap="round"/>
					</g>
					<g>
						<path d="M224,76.400987C224,76.400987 222,78.982343 222,78.982343 " transform="matrix(1,0,0,1,12.582852643,0.599013346)" fill="none" stroke="#000000" stroke-width="0.5" stroke-linecap="round"/>
					</g>
					<g>
						<path d="M226,76C226,76 223.000534,80 223.000534,80 " transform="matrix(1,0,0,1,12.582852643,0.599013346)" fill="none" stroke="#000000" stroke-width="0.5" stroke-linecap="round"/>
					</g>
				</g>
				<g transform="matrix(1,0,0,1,28.06022556,-73)">
					<path d="M218.543064,73.42396L 241.305937,73.42396 L 241.305937,74.920992 L 218.543064,74.920992 L 218.543064,73.42396 Z" transform="matrix(1,0,0,1,0,0)" fill="none" stroke="#000000" stroke-width="0.5"/>
				</g>
			</g>
			<g transform="matrix(1,0,0,-1,-0.742732325,399.820661641)">
				<g transform="matrix(1,0,0,1,150.115431396,-151.211011134)">
					<g>
						<path d="M124.029029,153.271267C125.517682,153.226811 130.949304,152.96836 133.092958,154.016886 C134.637312,154.772276 131.834726,159.026512 131.019206,159.399322 C130.001582,159.864521 122.594475,159.678038 122.630994,158.234292 C122.690002,155.901509 122.258974,153.324127 124.029029,153.271267 Z" fill="#222222" stroke="#000000" stroke-width="0.5"/>
					</g>
					<g>
						<path d="M133.806338,154.417148L 134.254447,154.417148 L 134.254447,155.571737 L 133.806338,155.571737 L 133.806338,154.417148 Z" fill="#000000" stroke="#000000" stroke-width="0.5"/>
					</g>
				</g>
				<g transform="matrix(-1,0,0,1,418.624325136,-151.211011134)">
					<g>
						<path d="M124.029029,153.271267C125.517682,153.226811 130.949304,152.96836 133.092958,154.016886 C134.637312,154.772276 131.834726,159.026512 131.019206,159.399322 C130.001582,159.864521 122.594475,159.678038 122.630994,158.234292 C122.690002,155.901509 122.258974,153.324127 124.029029,153.271267 Z" fill="#222222" stroke="#000000" stroke-width="0.5"/>
					</g>
					<g>
						<path d="M133.806338,154.417148L 134.254447,154.417148 L 134.254447,155.571737 L 133.806338,155.571737 L 133.806338,154.417148 Z" fill="#000000" stroke="#000000" stroke-width="0.5"/>
					</g>
				</g>
			</g>
		</g>
		<g>
			<g transform="matrix(0,1,-1,0,400.042177982,-0.742732325)">
				<g transform="matrix(1,0,0,1,71.375674864,-151.211011134)">
					<g>
						<path d="M124.029029,153.271267C125.517682,153.226811 130.949304,152.96836 133.092958,154.016886 C134.637312,154.772276 131.834726,159.026512 131.019206,159.399322 C130.001582,159.864521 122.594475,159.678038 122.630994,158.234292 C122.690002,155.901509 122.258974,153.324127 124.029029,153.271267 Z" fill="#222222" stroke="#000000" stroke-width="0.5"/>
					</g>
					<g>
						<path d="M133.806338,154.417148L 134.254447,154.417148 L 134.254447,155.571737 L 133.806338,155.571737 L 133.806338,154.417148 Z" fill="#000000" stroke="#000000" stroke-width="0.5"/>
					</g>
				</g>
				<g transform="matrix(-1,0,0,1,339.884568604,-151.211011134)">
					<g>
						<path d="M124.029029,153.271267C125.517682,153.226811 130.949304,152.96836 133.092958,154.016886 C134.637312,154.772276 131.834726,159.026512 131.019206,159.399322 C130.001582,159.864521 122.594475,159.678038 122.630994,158.234292 C122.690002,155.901509 122.258974,153.324127 124.029029,153.271267 Z" fill="#222222" stroke="#000000" stroke-width="0.5"/>
					</g>
					<g>
						<path d="M133.806338,154.417148L 134.254447,154.417148 L 134.254447,155.571737 L 133.806338,155.571737 L 133.806338,154.417148 Z" fill="#000000" stroke="#000000" stroke-width="0.5"/>
					</g>
				</g>
			</g>
			<g transform="matrix(0,1,-1,0,400.042177982,-0.742732325)">
				<g transform="matrix(1,0,0,1,13.038825679,-135.258646689)">
					<g>
						<path d="M156.991283,145.258647C156.991283,145.258647 147.456024,139.976095 151.663159,136.862815 C154.354131,134.871496 156.506908,138.585037 156.506908,138.585037 C156.506908,138.585037 158.597418,135.363976 161.118794,136.92213 C165.908723,139.882199 156.991283,145.258647 156.991283,145.258647 Z" transform="matrix(1,0,0,1,0,0)" fill="#252525" stroke="#000000" stroke-width="0.5"/>
					</g>
					<g>
						<path d="M162.523147,138.850962C162.523147,138.850962 163.521803,138.850962 163.521803,138.850962 " fill="none" stroke="#000000" stroke-width="0.5"/>
					</g>
				</g>
				<g transform="matrix(-1,0,0,1,340.082431331,-135.258646689)">
					<g>
						<path d="M156.991283,145.258647C156.991283,145.258647 147.456024,139.976095 151.663159,136.862815 C154.354131,134.871496 156.506908,138.585037 156.506908,138.585037 C156.506908,138.585037 158.597418,135.363976 161.118794,136.92213 C165.908723,139.882199 156.991283,145.258647 156.991283,145.258647 Z" transform="matrix(1,0,0,1,0,0)" fill="#252525" stroke="#000000" stroke-width="0.5"/>
					</g>
					<g>
						<path d="M162.523147,138.850962C162.523147,138.850962 163.521803,138.850962 163.521803,138.850962 " fill="none" stroke="#000000" stroke-width="0.5"/>
					</g>
				</g>
			</g>
			<g transform="matrix(0,1,-1,0,400.042177982,-0.742732325)">
				<g transform="matrix(1,0,0,1,-55.738573303,-72.775852108)">
					<g>
						<path d="M166.191283,74.413607C169.755205,74.399077 173.185144,75.083517 171.416581,79.076181 C170.561248,81.007162 167.879456,83.149234 165.253409,82.720492 C161.057454,82.035438 161.06138,79.875519 161.314338,77.709565 C161.74308,74.038458 163.942716,74.422775 166.191283,74.413607 Z" fill="#000000" stroke="#000000"/>
					</g>
					<g>
						<path d="M171.893126,77.027709C171.893126,77.027709 173.481306,77.027185 173.481306,77.027185 " fill="none" stroke="#000000" stroke-width="0.5"/>
					</g>
				</g>
				<g transform="matrix(-1,0,0,1,291.224037954,-72.775852108)">
					<g>
						<path d="M166.191283,74.413607C169.755205,74.399077 173.185144,75.083517 171.416581,79.076181 C170.561248,81.007162 167.879456,83.149234 165.253409,82.720492 C161.057454,82.035438 161.06138,79.875519 161.314338,77.709565 C161.74308,74.038458 163.942716,74.422775 166.191283,74.413607 Z" fill="#000000" stroke="#000000"/>
					</g>
					<g>
						<path d="M171.893126,77.027709C171.893126,77.027709 173.481306,77.027185 173.481306,77.027185 " fill="none" stroke="#000000" stroke-width="0.5"/>
					</g>
				</g>
			</g>
			<g transform="matrix(0,1,-1,0,400.042177982,-0.742732325)">
				<g transform="matrix(1,0,0,1,-55,-47)">
					<path d="M199.772739,48.543922C199.772739,48.543922 205.034491,48.543922 205.034491,48.543922 C205.034491,48.543922 213.606216,48.543922 213.606216,48.543922 C213.669834,48.639349 213.606216,53.543922 213.606216,53.543922 C213.606216,53.543922 212.733452,55.543922 212.606216,55.543922 C212.606216,55.543922 203.80723,55.543922 203.80723,55.543922 C203.80723,55.543922 203.393334,53.936547 202.403615,52.74747 C201.413896,53.936547 201,55.543922 201,55.543922 C201,55.543922 192.201013,55.543922 192.201013,55.543922 C192.073778,55.543922 191.201013,53.543922 191.201013,53.543922 C191.201013,53.543922 191.137395,48.639349 191.201013,48.543922 C191.201013,48.543922 199.772739,48.543922 199.772739,48.543922 L 199.772739,48.543922 Z" fill="none" stroke="#000000" stroke-width="0.5"/>
				</g>
				<g transform="matrix(1,0,0,1,-55,-47)">
					<path d="M193,50L 201,50 L 201,52 L 200,54 L 193,54 L 193,50 Z" transform="matrix(1,0,0,1,0,0)" fill="#00fff9" stroke="#000000" stroke-width="0.5" stroke-linejoin="bevel"/>
				</g>
				<g transform="matrix(1,0,0,1,-55,-47)">
					<path d="M205,50L 213,50 L 213,52 L 212,54 L 205,54 L 205,50 Z" transform="matrix(-1,0,0,1,417,0)" fill="#ff005f" stroke="#000000" stroke-width="0.5" stroke-linejoin="bevel"/>
				</g>
			</g>
			<g transform="matrix(0,1,-1,0,400.042177982,-0.742732325)">
				<g transform="matrix(1,0,0,1,30.145753162,-72.780721074)">
					<g>
						<path d="M195.027419,73.61517C197.556124,73.61517 199.610194,75.66924 199.610194,78.197946 C199.610194,80.726651 197.556124,82.780721 195.027419,82.780721 C192.498713,82.780721 190.444643,80.726651 190.444643,78.197946 C190.444643,75.66924 192.498713,73.61517 195.027419,73.61517 Z" transform="matrix(1,0,0,1,0,0)" fill="none" stroke="#000000" stroke-width="0.5"/>
					</g>
					<g>
						<path d="M199.610194,78.197946C199.610194,78.197946 201.854247,78.197946 201.854247,78.197946 " fill="none" stroke="#000000" stroke-width="0.5"/>
					</g>
				</g>
				<g transform="matrix(-1,0,0,1,433.854246838,-72.780721074)">
					<g>
						<path d="M195.027419,73.61517C197.556124,73.61517 199.610194,75.66924 199.610194,78.197946 C199.610194,80.726651 197.556124,82.780721 195.027419,82.780721 C192.498713,82.780721 190.444643,80.726651 190.444643,78.197946 C190.444643,75.66924 192.498713,73.61517 195.027419,73.61517 Z" transform="matrix(1,0,0,1,0,0)" fill="none" stroke="#000000" stroke-width="0.5"/>
					</g>
					<g>
						<path d="M199.610194,78.197946C199.610194,78.197946 201.854247,78.197946 201.854247,78.197946 " fill="none" stroke="#000000" stroke-width="0.5"/>
					</g>
				</g>
			</g>
			<g transform="matrix(0,1,-1,0,400.042177982,-0.742732325)">
				<g transform="matrix(1,0,0,1,28.06022556,-73)">
					<path d="M218.543064,74.920992C218.543064,74.920992 218.543064,79.115875 218.543064,79.115875 L 220,82 L 223,83 L 228,83 C229.939774,78.960496 229.939774,78.960496 232,83 L 237,83 L 240,82 L 241.336485,79.115875 C241.336485,79.115875 241.305937,74.920992 241.305937,74.920992 C241.305937,74.920992 218.543064,74.920992 218.543064,74.920992 Z" fill="none" stroke="#000000" stroke-width="0.5" stroke-linecap="round" stroke-linejoin="round"/>
				</g>
				<g transform="matrix(1,0,0,1,28.06022556,-73)">
					<g>
						<path d="M224,76.400987C224,76.400987 222,78.982343 222,78.982343 " transform="matrix(1,0,0,1,0,0.599013346)" fill="none" stroke="#000000" stroke-width="0.5" stroke-linecap="round"/>
					</g>
					<g>
						<path d="M226,76C226,76 223.000534,80 223.000534,80 " transform="matrix(1,0,0,1,0,0.599013346)" fill="none" stroke="#000000" stroke-width="0.5" stroke-linecap="round"/>
					</g>
					<g>
						<path d="M224,76.400987C224,76.400987 222,78.982343 222,78.982343 " transform="matrix(1,0,0,1,12.582852643,0.599013346)" fill="none" stroke="#000000" stroke-width="0.5" stroke-linecap="round"/>
					</g>
					<g>
						<path d="M226,76C226,76 223.000534,80 223.000534,80 " transform="matrix(1,0,0,1,12.582852643,0.599013346)" fill="none" stroke="#000000" stroke-width="0.5" stroke-linecap="round"/>
					</g>
				</g>
				<g transform="matrix(1,0,0,1,28.06022556,-73)">
					<path d="M218.543064,73.42396L 241.305937,73.42396 L 241.305937,74.920992 L 218.543064,74.920992 L 218.543064,73.42396 Z" transform="matrix(1,0,0,1,0,0)" fill="none" stroke="#000000" stroke-width="0.5"/>
				</g>
			</g>
			<g transform="matrix(0,1,-1,0,400.042177982,-0.742732325)">
				<g transform="matrix(1,0,0,1,150.115431396,-151.211011134)">
					<g>
						<path d="M124.029029,153.271267C125.517682,153.226811 130.949304,152.96836 133.092958,154.016886 C134.637312,154.772276 131.834726,159.026512 131.019206,159.399322 C130.001582,159.864521 122.594475,159.678038 122.630994,158.234292 C122.690002,155.901509 122.258974,153.324127 124.029029,153.271267 Z" fill="#222222" stroke="#000000" stroke-width="0.5"/>
					</g>
					<g>
						<path d="M133.806338,154.417148L 134.254447,154.417148 L 134.254447,155.571737 L 133.806338,155.571737 L 133.806338,154.417148 Z" fill="#000000" stroke="#000000" stroke-width="0.5"/>
					</g>
				</g>
				<g transform="matrix(-1,0,0,1,418.624325136,-151.211011134)">
					<g>
						<path d="M124.029029,153.271267C125.517682,153.226811 130.949304,152.96836 133.092958,154.016886 C134.637312,154.772276 131.834726,159.026512 131.019206,159.399322 C130.001582,159.864521 122.594475,159.678038 122.630994,158.234292 C122.690002,155.901509 122.258974,153.324127 124.029029,153.271267 Z" fill="#222222" stroke="#000000" stroke-width="0.5"/>
					</g>
					<g>
						<path d="M133.806338,154.417148L 134.254447,154.417148 L 134.254447,155.571737 L 133.806338,155.571737 L 133.806338,154.417148 Z" fill="#000000" stroke="#000000" stroke-width="0.5"/>
					</g>
				</g>
			</g>
		</g>
		<g>
			<g transform="matrix(0,1,1,0,0.31660746,-0.742732325)">
				<g transform="matrix(1,0,0,1,71.375674864,-151.211011134)">
					<g>
						<path d="M124.029029,153.271267C125.517682,153.226811 130.949304,152.96836 133.092958,154.016886 C134.637312,154.772276 131.834726,159.026512 131.019206,159.399322 C130.001582,159.864521 122.594475,159.678038 122.630994,158.234292 C122.690002,155.901509 122.258974,153.324127 124.029029,153.271267 Z" fill="#222222" stroke="#000000" stroke-width="0.5"/>
					</g>
					<g>
						<path d="M133.806338,154.417148L 134.254447,154.417148 L 134.254447,155.571737 L 133.806338,155.571737 L 133.806338,154.417148 Z" fill="#000000" stroke="#000000" stroke-width="0.5"/>
					</g>
				</g>
				<g transform="matrix(-1,0,0,1,339.884568604,-151.211011134)">
					<g>
						<path d="M124.029029,153.271267C125.517682,153.226811 130.949304,152.96836 133.092958,154.016886 C134.637312,154.772276 131.834726,159.026512 131.019206,159.399322 C130.001582,159.864521 122.594475,159.678038 122.630994,158.234292 C122.690002,155.901509 122.258974,153.324127 124.029029,153.271267 Z" fill="#222222" stroke="#000000" stroke-width="0.5"/>
					</g>
					<g>
						<path d="M133.806338,154.417148L 134.254447,154.417148 L 134.254447,155.571737 L 133.806338,155.571737 L 133.806338,154.417148 Z" fill="#000000" stroke="#000000" stroke-width="0.5"/>
					</g>
				</g>
			</g>
			<g transform="matrix(0,1,1,0,0.31660746,-0.742732325)">
				<g transform="matrix(1,0,0,1,13.038825679,-135.258646689)">
					<g>
						<path d="M156.991283,145.258647C156.991283,145.258647 147.456024,139.976095 151.663159,136.862815 C154.354131,134.871496 156.506908,138.585037 156.506908,138.585037 C156.506908,138.585037 158.597418,135.363976 161.118794,136.92213 C165.908723,139.882199 156.991283,145.258647 156.991283,145.258647 Z" transform="matrix(1,0,0,1,0,0)" fill="#252525" stroke="#000000" stroke-width="0.5"/>
					</g>
					<g>
						<path d="M162.523147,138.850962C162.523147,138.850962 163.521803,138.850962 163.521803,138.850962 " fill="none" stroke="#000000" stroke-width="0.5"/>
					</g>
				</g>
				<g transform="matrix(-1,0,0,1,340.082431331,-135.258646689)">
					<g>
						<path d="M156.991283,145.258647C156.991283,145.258647 147.456024,139.976095 151.663159,136.862815 C154.354131,134.871496 156.506908,138.585037 156.506908,138.585037 C156.506908,138.585037 158.597418,135.363976 161.118794,136.92213 C165.908723,139.882199 156.991283,145.258647 156.991283,145.258647 Z" transform="matrix(1,0,0,1,0,0)" fill="#252525" stroke="#000000" stroke-width="0.5"/>
					</g>
					<g>
						<path d="M162.523147,138.850962C162.523147,138.850962 163.521803,138.850962 163.521803,138.850962 " fill="none" stroke="#000000" stroke-width="0.5"/>
					</g>
				</g>
			</g>
			<g transform="matrix(0,1,1,0,0.31660746,-0.742732325)">
				<g transform="matrix(1,0,0,1,-55.738573303,-72.775852108)">
					<g>
						<path d="M166.191283,74.413607C169.755205,74.399077 173.185144,75.083517 171.416581,79.076181 C170.561248,81.007162 167.879456,83.149234 165.253409,82.720492 C161.057454,82.035438 161.06138,79.875519 161.314338,77.709565 C161.74308,74.038458 163.942716,74.422775 166.191283,74.413607 Z" fill="#000000" stroke="#000000"/>
					</g>
					<g>
						<path d="M171.893126,77.027709C171.893126,77.027709 173.481306,77.027185 173.481306,77.027185 " fill="none" stroke="#000000" stroke-width="0.5"/>
					</g>
				</g>
				<g transform="matrix(-1,0,0,1,291.224037954,-72.775852108)">
					<g>
						<path d="M166.191283,74.413607C169.755205,74.399077 173.185144,75.083517 171.416581,79.076181 C170.561248,81.007162 167.879456,83.149234 165.253409,82.720492 C161.057454,82.035438 161.06138,79.875519 161.314338,77.709565 C161.74308,74.038458 163.942716,74.422775 166.191283,74.413607 Z" fill="#000000" stroke="#000000"/>
					</g>
					<g>
						<path d="M171.893126,77.027709C171.893126,77.027709 173.481306,77.027185 173.481306,77.027185 " fill="none" stroke="#000000" stroke-width="0.5"/>
					</g>
				</g>
			</g>
			<g transform="matrix(0,1,1,0,0.31660746,-0.742732325)">
				<g transform="matrix(1,0,0,1,-55,-47)">
					<path d="M199.772739,48.543922C199.772739,48.543922 205.034491,48.543922 205.034491,48.543922 C205.034491,48.543922 213.606216,48.543922 213.606216,48.543922 C213.669834,48.639349 213.606216,53.543922 213.606216,53.543922 C213.606216,53.543922 212.733452,55.543922 212.606216,55.543922 C212.606216,55.543922 203.80723,55.543922 203.80723,55.543922 C203.80723,55.543922 203.393334,53.936547 202.403615,52.74747 C201.413896,53.936547 201,55.543922 201,55.543922 C201,55.543922 192.201013,55.543922 192.201013,55.543922 C192.073778,55.543922 191.201013,53.543922 191.201013,53.543922 C191.201013,53.543922 191.137395,48.639349 191.201013,48.543922 C191.201013,48.543922 199.772739,48.543922 199.772739,48.543922 L 199.772739,48.543922 Z" fill="none" stroke="#000000" stroke-width="0.5"/>
				</g>
				<g transform="matrix(1,0,0,1,-55,-47)">
					<path d="M193,50L 201,50 L 201,52 L 200,54 L 193,54 L 193,50 Z" transform="matrix(1,0,0,1,0,0)" fill="#00fff9" stroke="#000000" stroke-width="0.5" stroke-linejoin="bevel"/>
				</g>
				<g transform="matrix(1,0,0,1,-55,-47)">
					<path d="M205,50L 213,50 L 213,52 L 212,54 L 205,54 L 205,50 Z" transform="matrix(-1,0,0,1,417,0)" fill="#ff005f" stroke="#000000" stroke-width="0.5" stroke-linejoin="bevel"/>
				</g>
			</g>
			<g transform="matrix(0,1,1,0,0.31660746,-0.742732325)">
				<g transform="matrix(1,0,0,1,30.145753162,-72.780721074)">
					<g>
						<path d="M195.027419,73.61517C197.556124,73.61517 199.610194,75.66924 199.610194,78.197946 C199.610194,80.726651 197.556124,82.780721 195.027419,82.780721 C192.498713,82.780721 190.444643,80.726651 190.444643,78.197946 C190.444643,75.66924 192.498713,73.61517 195.027419,73.61517 Z" transform="matrix(1,0,0,1,0,0)" fill="none" stroke="#000000" stroke-width="0.5"/>
					</g>
					<g>
						<path d="M199.610194,78.197946C199.610194,78.197946 201.854247,78.197946 201.854247,78.197946 " fill="none" stroke="#000000" stroke-width="0.5"/>
					</g>
				</g>
				<g transform="matrix(-1,0,0,1,433.854246838,-72.780721074)">
					<g>
						<path d="M195.027419,73.61517C197.556124,73.61517 199.610194,75.66924 199.610194,78.197946 C199.610194,80.726651 197.556124,82.780721 195.027419,82.780721 C192.498713,82.780721 190.444643,80.726651 190.444643,78.197946 C190.444643,75.66924 192.498713,73.61517 195.027419,73.61517 Z" transform="matrix(1,0,0,1,0,0)" fill="none" stroke="#000000" stroke-width="0.5"/>
					</g>
					<g>
						<path d="M199.610194,78.197946C199.610194,78.197946 201.854247,78.197946 201.854247,78.197946 " fill="none" stroke="#000000" stroke-width="0.5"/>
					</g>
				</g>
			</g>
			<g transform="matrix(0,1,1,0,0.31660746,-0.742732325)">
				<g transform="matrix(1,0,0,1,28.06022556,-73)">
					<path d="M218.543064,74.920992C218.543064,74.920992 218.543064,79.115875 218.543064,79.115875 L 220,82 L 223,83 L 228,83 C229.939774,78.960496 229.939774,78.960496 232,83 L 237,83 L 240,82 L 241.336485,79.115875 C241.336485,79.115875 241.305937,74.920992 241.305937,74.920992 C241.305937,74.920992 218.543064,74.920992 218.543064,74.920992 Z" fill="none" stroke="#000000" stroke-width="0.5" stroke-linecap="round" stroke-linejoin="round"/>
				</g>
				<g transform="matrix(1,0,0,1,28.06022556,-73)">
					<g>
						<path d="M224,76.400987C224,76.400987 222,78.982343 222,78.982343 " transform="matrix(1,0,0,1,0,0.599013346)" fill="none" stroke="#000000" stroke-width="0.5" stroke-linecap="round"/>
					</g>
					<g>
						<path d="M226,76C226,76 223.000534,80 223.000534,80 " transform="matrix(1,0,0,1,0,0.599013346)" fill="none" stroke="#000000" stroke-width="0.5" stroke-linecap="round"/>
					</g>
					<g>
						<path d="M224,76.400987C224,76.400987 222,78.982343 222,78.982343 " transform="matrix(1,0,0,1,12.582852643,0.599013346)" fill="none" stroke="#000000" stroke-width="0.5" stroke-linecap="round"/>
					</g>
					<g>
						<path d="M226,76C226,76 223.000534,80 223.000534,80 " transform="matrix(1,0,0,1,12.582852643,0.599013346)" fill="none" stroke="#000000" stroke-width="0.5" stroke-linecap="round"/>
					</g>
				</g>
				<g transform="matrix(1,0,0,1,28.06022556,-73)">
					<path d="M218.543064,73.42396L 241.305937,73.42396 L 241.305937,74.920992 L 218.543064,74.920992 L 218.543064,73.42396 Z" transform="matrix(1,0,0,1,0,0)" fill="none" stroke="#000000" stroke-width="0.5"/>
				</g>
			</g>
			<g transform="matrix(0,1,1,0,0.31660746,-0.742732325)">
				<g transform="matrix(1,0,0,1,150.115431396,-151.211011134)">
					<g>
						<path d="M124.029029,153.271267C125.517682,153.226811 130.949304,152.96836 133.092958,154.016886 C134.637312,154.772276 131.834726,159.026512 131.019206,159.399322 C130.001582,159.864521 122.594475,159.678038 122.630994,158.234292 C122.690002,155.901509 122.258974,153.324127 124.029029,153.271267 Z" fill="#222222" stroke="#000000" stroke-width="0.5"/>
					</g>
					<g>
						<path d="M133.806338,154.417148L 134.254447,154.417148 L 134.254447,155.571737 L 133.806338,155.571737 L 133.806338,154.417148 Z" fill="#000000" stroke="#000000" stroke-width="0.5"/>
					</g>
				</g>
				<g transform="matrix(-1,0,0,1,418.624325136,-151.211011134)">
					<g>
						<path d="M124.029029,153.271267C125.517682,153.226811 130.949304,152.96836 133.092958,154.016886 C134.637312,154.772276 131.834726,159.026512 131.019206,159.399322 C130.001582,159.864521 122.594475,159.678038 122.630994,158.234292 C122.690002,155.901509 122.258974,153.324127 124.029029,153.271267 Z" fill="#222222" stroke="#000000" stroke-width="0.5"/>
					</g>
					<g>
						<path d="M133.806338,154.417148L 134.254447,154.417148 L 134.254447,155.571737 L 133.806338,155.571737 L 133.806338,154.417148 Z" fill="#000000" stroke="#000000" stroke-width="0.5"/>
					</g>
				</g>
			</g>
		</g>
	</g>
	<g>
		<g>
			<g>
				<g>
					<g>
						<g transform="matrix(0,1,1,0,-73.017893542,-114.707923549)">
							<g>
								<path d="M166.191283,74.413607C169.755205,74.399077 173.185144,75.083517 171.416581,79.076181 C170.561248,81.007162 167.879456,83.149234 165.253409,82.720492 C161.057454,82.035438 161.06138,79.875519 161.314338,77.709565 C161.74308,74.038458 163.942716,74.422775 166.191283,74.413607 Z" fill="#000000" stroke="#000000"/>
							</g>
							<g>
								<path d="M171.893126,77.027709C171.893126,77.027709 173.481306,77.027185 173.481306,77.027185 " fill="none" stroke="#000000" stroke-width="0.5"/>
							</g>
						</g>
						<g transform="matrix(0,-1,1,0,-73.017893542,232.254687708)">
							<g>
								<path d="M166.191283,74.413607C169.755205,74.399077 173.185144,75.083517 171.416581,79.076181 C170.561248,81.007162 167.879456,83.149234 165.253409,82.720492 C161.057454,82.035438 161.06138,79.875519 161.314338,77.709565 C161.74308,74.038458 163.942716,74.422775 166.191283,74.413607 Z" fill="#000000" stroke="#000000"/>
							</g>
							<g>
								<path d="M171.893126,77.027709C171.893126,77.027709 173.481306,77.027185 173.481306,77.027185 " fill="none" stroke="#000000" stroke-width="0.5"/>
							</g>
						</g>
					</g>
					<g>
						<g transform="matrix(0,1,1,0,-135.030454492,-78.359226467)">
							<g>
								<path d="M156.991283,145.258647C156.991283,145.258647 147.456024,139.976095 151.663159,136.862815 C154.354131,134.871496 156.506908,138.585037 156.506908,138.585037 C156.506908,138.585037 158.597418,135.363976 161.118794,136.92213 C165.908723,139.882199 156.991283,145.258647 156.991283,145.258647 Z" transform="matrix(1,0,0,1,0,0)" fill="#252525" stroke="#000000" stroke-width="0.5"/>
							</g>
							<g>
								<path d="M162.523147,138.850962C162.523147,138.850962 163.521803,138.850962 163.521803,138.850962 " fill="none" stroke="#000000" stroke-width="0.5"/>
							</g>
						</g>
						<g transform="matrix(0,-1,1,0,-135.030454492,248.684379184)">
							<g>
								<path d="M156.991283,145.258647C156.991283,145.258647 147.456024,139.976095 151.663159,136.862815 C154.354131,134.871496 156.506908,138.585037 156.506908,138.585037 C156.506908,138.585037 158.597418,135.363976 161.118794,136.92213 C165.908723,139.882199 156.991283,145.258647 156.991283,145.258647 Z" transform="matrix(1,0,0,1,0,0)" fill="#252525" stroke="#000000" stroke-width="0.5"/>
							</g>
							<g>
								<path d="M162.523147,138.850962C162.523147,138.850962 163.521803,138.850962 163.521803,138.850962 " fill="none" stroke="#000000" stroke-width="0.5"/>
							</g>
						</g>
					</g>
					<g>
						<g transform="matrix(0.707106781,-0.707106781,0.707106781,0.707106781,-167.28440593,118.125043413)">
							<path d="M199.772739,48.543922C199.772739,48.543922 205.034491,48.543922 205.034491,48.543922 C205.034491,48.543922 213.606216,48.543922 213.606216,48.543922 C213.669834,48.639349 213.606216,53.543922 213.606216,53.543922 C213.606216,53.543922 212.733452,55.543922 212.606216,55.543922 C212.606216,55.543922 203.80723,55.543922 203.80723,55.543922 C203.80723,55.543922 203.393334,53.936547 202.403615,52.74747 C201.413896,53.936547 201,55.543922 201,55.543922 C201,55.543922 192.201013,55.543922 192.201013,55.543922 C192.073778,55.543922 191.201013,53.543922 191.201013,53.543922 C191.201013,53.543922 191.137395,48.639349 191.201013,48.543922 C191.201013,48.543922 199.772739,48.543922 199.772739,48.543922 L 199.772739,48.543922 Z" fill="none" stroke="#000000" stroke-width="0.5"/>
						</g>
						<g transform="matrix(0.707106781,-0.707106781,0.707106781,0.707106781,-167.28440593,118.125043413)">
							<path d="M193,50L 201,50 L 201,52 L 200,54 L 193,54 L 193,50 Z" transform="matrix(1,0,0,1,0,0)" fill="#00fff9" stroke="#000000" stroke-width="0.5" stroke-linejoin="bevel"/>
						</g>
						<g transform="matrix(0.707106781,-0.707106781,0.707106781,0.707106781,-167.28440593,118.125043413)">
							<path d="M205,50L 213,50 L 213,52 L 212,54 L 205,54 L 205,50 Z" transform="matrix(-1,0,0,1,417,0)" fill="#ff005f" stroke="#000000" stroke-width="0.5" stroke-linejoin="bevel"/>
						</g>
					</g>
					<g>
						<g transform="matrix(0,1,-1,0,83.603105652,-168.641633411)">
							<g>
								<path d="M195.027419,73.61517C197.556124,73.61517 199.610194,75.66924 199.610194,78.197946 C199.610194,80.726651 197.556124,82.780721 195.027419,82.780721 C192.498713,82.780721 190.444643,80.726651 190.444643,78.197946 C190.444643,75.66924 192.498713,73.61517 195.027419,73.61517 Z" transform="matrix(1,0,0,1,0,0)" fill="none" stroke="#000000" stroke-width="0.5"/>
							</g>
							<g>
								<path d="M199.610194,78.197946C199.610194,78.197946 201.854247,78.197946 201.854247,78.197946 " fill="none" stroke="#000000" stroke-width="0.5"/>
							</g>
						</g>
						<g transform="matrix(0,-1,-1,0,83.603105652,235.066860266)">
							<g>
								<path d="M195.027419,73.61517C197.556124,73.61517 199.610194,75.66924 199.610194,78.197946 C199.610194,80.726651 197.556124,82.780721 195.027419,82.780721 C192.498713,82.780721 190.444643,80.726651 190.444643,78.197946 C190.444643,75.66924 192.498713,73.61517 195.027419,73.61517 Z" transform="matrix(1,0,0,1,0,0)" fill="none" stroke="#000000" stroke-width="0.5"/>
							</g>
							<g>
								<path d="M199.610194,78.197946C199.610194,78.197946 201.854247,78.197946 201.854247,78.197946 " fill="none" stroke="#000000" stroke-width="0.5"/>
							</g>
						</g>
					</g>
					<g>
						<g transform="matrix(1,0,0,1,-99.41430096,-151.95436519)">
							<g>
								<path d="M124.029029,153.271267C125.517682,153.226811 130.949304,152.96836 133.092958,154.016886 C134.637312,154.772276 131.834726,159.026512 131.019206,159.399322 C130.001582,159.864521 122.594475,159.678038 122.630994,158.234292 C122.690002,155.901509 122.258974,153.324127 124.029029,153.271267 Z" fill="#222222" stroke="#000000" stroke-width="0.5"/>
							</g>
							<g>
								<path d="M133.806338,154.417148L 134.254447,154.417148 L 134.254447,155.571737 L 133.806338,155.571737 L 133.806338,154.417148 Z" fill="#000000" stroke="#000000" stroke-width="0.5"/>
							</g>
						</g>
						<g transform="matrix(-1,0,0,1,169.09459278,-151.95436519)">
							<g>
								<path d="M124.029029,153.271267C125.517682,153.226811 130.949304,152.96836 133.092958,154.016886 C134.637312,154.772276 131.834726,159.026512 131.019206,159.399322 C130.001582,159.864521 122.594475,159.678038 122.630994,158.234292 C122.690002,155.901509 122.258974,153.324127 124.029029,153.271267 Z" fill="#222222" stroke="#000000" stroke-width="0.5"/>
							</g>
							<g>
								<path d="M133.806338,154.417148L 134.254447,154.417148 L 134.254447,155.571737 L 133.806338,155.571737 L 133.806338,154.417148 Z" fill="#000000" stroke="#000000" stroke-width="0.5"/>
							</g>
						</g>
					</g>
					<g>
						<g transform="matrix(1,0,0,1,-170.000533546,-72.494774305)">
							<path d="M218.543064,74.920992C218.543064,74.920992 218.543064,79.115875 218.543064,79.115875 L 220,82 L 223,83 L 228,83 C229.939774,78.960496 229.939774,78.960496 232,83 L 237,83 L 240,82 L 241.336485,79.115875 C241.336485,79.115875 241.305937,74.920992 241.305937,74.920992 C241.305937,74.920992 218.543064,74.920992 218.543064,74.920992 Z" transform="matrix(1,0,0,1,0.000533546,0)" fill="none" stroke="#000000" stroke-width="0.5" stroke-linecap="round" stroke-linejoin="round"/>
						</g>
						<g transform="matrix(1,0,0,1,-170.000533546,-72.494774305)">
							<g>
								<path d="M224,76.400987C224,76.400987 222,78.982343 222,78.982343 " transform="matrix(1,0,0,1,0,0.599013346)" fill="none" stroke="#000000" stroke-width="0.5" stroke-linecap="round"/>
							</g>
							<g>
								<path d="M226,76C226,76 223.000534,80 223.000534,80 " transform="matrix(1,0,0,1,0,0.599013346)" fill="none" stroke="#000000" stroke-width="0.5" stroke-linecap="round"/>
							</g>
							<g>
								<path d="M224,76.400987C224,76.400987 222,78.982343 222,78.982343 " transform="matrix(1,0,0,1,12.582852643,0.599013346)" fill="none" stroke="#000000" stroke-width="0.5" stroke-linecap="round"/>
							</g>
							<g>
								<path d="M226,76C226,76 223.000534,80 223.000534,80 " transform="matrix(1,0,0,1,12.582852643,0.599013346)" fill="none" stroke="#000000" stroke-width="0.5" stroke-linecap="round"/>
							</g>
						</g>
						<g transform="matrix(1,0,0,1,-170.000533546,-72.494774305)">
							<path d="M218.543598,73.42396L 241.306471,73.42396 L 241.306471,74.920992 L 218.543598,74.920992 L 218.543598,73.42396 Z" transform="matrix(1,0,0,1,0,0)" fill="none" stroke="#000000" stroke-width="0.5"/>
						</g>
					</g>
					<g>
						<g transform="matrix(1,0,0,1,-77.973375632,-135.355755815)">
							<g>
								<path d="M156.991283,145.258647C156.991283,145.258647 147.456024,139.976095 151.663159,136.862815 C154.354131,134.871496 156.506908,138.585037 156.506908,138.585037 C156.506908,138.585037 158.597418,135.363976 161.118794,136.92213 C165.908723,139.882199 156.991283,145.258647 156.991283,145.258647 Z" transform="matrix(1,0,0,1,0,0)" fill="#252525" stroke="#000000" stroke-width="0.5"/>
							</g>
							<g>
								<path d="M162.523147,138.850962C162.523147,138.850962 163.521803,138.850962 163.521803,138.850962 " fill="none" stroke="#000000" stroke-width="0.5"/>
							</g>
						</g>
						<g transform="matrix(-1,0,0,1,249.070230019,-135.355755815)">
							<g>
								<path d="M156.991283,145.258647C156.991283,145.258647 147.456024,139.976095 151.663159,136.862815 C154.354131,134.871496 156.506908,138.585037 156.506908,138.585037 C156.506908,138.585037 158.597418,135.363976 161.118794,136.92213 C165.908723,139.882199 156.991283,145.258647 156.991283,145.258647 Z" transform="matrix(1,0,0,1,0,0)" fill="#252525" stroke="#000000" stroke-width="0.5"/>
							</g>
							<g>
								<path d="M162.523147,138.850962C162.523147,138.850962 163.521803,138.850962 163.521803,138.850962 " fill="none" stroke="#000000" stroke-width="0.5"/>
							</g>
						</g>
					</g>
				</g>
				<g transform="matrix(-1,0,0,1,399.301318542,0)">
					<g>
						<g transform="matrix(0,1,1,0,-73.017893542,-114.707923549)">
							<g>
								<path d="M166.191283,74.413607C169.755205,74.399077 173.185144,75.083517 171.416581,79.076181 C170.561248,81.007162 167.879456,83.149234 165.253409,82.720492 C161.057454,82.035438 161.06138,79.875519 161.314338,77.709565 C161.74308,74.038458 163.942716,74.422775 166.191283,74.413607 Z" fill="#000000" stroke="#000000"/>
							</g>
							<g>
								<path d="M171.893126,77.027709C171.893126,77.027709 173.481306,77.027185 173.481306,77.027185 " fill="none" stroke="#000000" stroke-width="0.5"/>
							</g>
						</g>
						<g transform="matrix(0,-1,1,0,-73.017893542,232.254687708)">
							<g>
								<path d="M166.191283,74.413607C169.755205,74.399077 173.185144,75.083517 171.416581,79.076181 C170.561248,81.007162 167.879456,83.149234 165.253409,82.720492 C161.057454,82.035438 161.06138,79.875519 161.314338,77.709565 C161.74308,74.038458 163.942716,74.422775 166.191283,74.413607 Z" fill="#000000" stroke="#000000"/>
							</g>
							<g>
								<path d="M171.893126,77.027709C171.893126,77.027709 173.481306,77.027185 173.481306,77.027185 " fill="none" stroke="#000000" stroke-width="0.5"/>
							</g>
						</g>
					</g>
					<g>
						<g transform="matrix(0,1,1,0,-135.030454492,-78.359226467)">
							<g>
								<path d="M156.991283,145.258647C156.991283,145.258647 147.456024,139.976095 151.663159,136.862815 C154.354131,134.871496 156.506908,138.585037 156.506908,138.585037 C156.506908,138.585037 158.597418,135.363976 161.118794,136.92213 C165.908723,139.882199 156.991283,145.258647 156.991283,145.258647 Z" transform="matrix(1,0,0,1,0,0)" fill="#252525" stroke="#000000" stroke-width="0.5"/>
							</g>
							<g>
								<path d="M162.523147,138.850962C162.523147,138.850962 163.521803,138.850962 163.521803,138.850962 " fill="none" stroke="#000000" stroke-width="0.5"/>
							</g>
						</g>
						<g transform="matrix(0,-1,1,0,-135.030454492,248.684379184)">
							<g>
								<path d="M156.991283,145.258647C156.991283,145.258647 147.456024,139.976095 151.663159,136.862815 C154.354131,134.871496 156.506908,138.585037 156.506908,138.585037 C156.506908,138.585037 158.597418,135.363976 161.118794,136.92213 C165.908723,139.882199 156.991283,145.258647 156.991283,145.258647 Z" transform="matrix(1,0,0,1,0,0)" fill="#252525" stroke="#000000" stroke-width="0.5"/>
							</g>
							<g>
								<path d="M162.523147,138.850962C162.523147,138.850962 163.521803,138.850962 163.521803,138.850962 " fill="none" stroke="#000000" stroke-width="0.5"/>
							</g>
						</g>
					</g>
					<g>
						<g transform="matrix(0.707106781,-0.707106781,0.707106781,0.707106781,-167.28440593,118.125043413)">
							<path d="M199.772739,48.543922C199.772739,48.543922 205.034491,48.543922 205.034491,48.543922 C205.034491,48.543922 213.606216,48.543922 213.606216,48.543922 C213.669834,48.639349 213.606216,53.543922 213.606216,53.543922 C213.606216,53.543922 212.733452,55.543922 212.606216,55.543922 C212.606216,55.543922 203.80723,55.543922 203.80723,55.543922 C203.80723,55.543922 203.393334,53.936547 202.403615,52.74747 C201.413896,53.936547 201,55.543922 201,55.543922 C201,55.543922 192.201013,55.543922 192.201013,55.543922 C192.073778,55.543922 191.201013,53.543922 191.201013,53.543922 C191.201013,53.543922 191.137395,48.639349 191.201013,48.543922 C191.201013,48.543922 199.772739,48.543922 199.772739,48.543922 L 199.772739,48.543922 Z" fill="none" stroke="#000000" stroke-width="0.5"/>
						</g>
						<g transform="matrix(0.707106781,-0.707106781,0.707106781,0.707106781,-167.28440593,118.125043413)">
							<path d="M193,50L 201,50 L 201,52 L 200,54 L 193,54 L 193,50 Z" transform="matrix(1,0,0,1,0,0)" fill="#00fff9" stroke="#000000" stroke-width="0.5" stroke-linejoin="bevel"/>
						</g>
						<g transform="matrix(0.707106781,-0.707106781,0.707106781,0.707106781,-167.28440593,118.125043413)">
							<path d="M205,50L 213,50 L 213,52 L 212,54 L 205,54 L 205,50 Z" transform="matrix(-1,0,0,1,417,0)" fill="#ff005f" stroke="#000000" stroke-width="0.5" stroke-linejoin="bevel"/>
						</g>
					</g>
					<g>
						<g transform="matrix(0,1,-1,0,83.603105652,-168.641633411)">
							<g>
								<path d="M195.027419,73.61517C197.556124,73.61517 199.610194,75.66924 199.610194,78.197946 C199.610194,80.726651 197.556124,82.780721 195.027419,82.780721 C192.498713,82.780721 190.444643,80.726651 190.444643,78.197946 C190.444643,75.66924 192.498713,73.61517 195.027419,73.61517 Z" transform="matrix(1,0,0,1,0,0)" fill="none" stroke="#000000" stroke-width="0.5"/>
							</g>
							<g>
								<path d="M199.610194,78.197946C199.610194,78.197946 201.854247,78.197946 201.854247,78.197946 " fill="none" stroke="#000000" stroke-width="0.5"/>
							</g>
						</g>
						<g transform="matrix(0,-1,-1,0,83.603105652,235.066860266)">
							<g>
								<path d="M195.027419,73.61517C197.556124,73.61517 199.610194,75.66924 199.610194,78.197946 C199.610194,80.726651 197.556124,82.780721 195.027419,82.780721 C192.498713,82.780721 190.444643,80.726651 190.444643,78.197946 C190.444643,75.66924 192.498713,73.61517 195.027419,73.61517 Z" transform="matrix(1,0,0,1,0,0)" fill="none" stroke="#000000" stroke-width="0.5"/>
							</g>
							<g>
								<path d="M199.610194,78.197946C199.610194,78.197946 201.854247,78.197946 201.854247,78.197946 " fill="none" stroke="#000000" stroke-width="0.5"/>
							</g>
						</g>
					</g>
					<g>
						<g transform="matrix(1,0,0,1,-99.41430096,-151.95436519)">
							<g>
								<path d="M124.029029,153.271267C125.517682,153.226811 130.949304,152.96836 133.092958,154.016886 C134.637312,154.772276 131.834726,159.026512 131.019206,159.399322 C130.001582,159.864521 122.594475,159.678038 122.630994,158.234292 C122.690002,155.901509 122.258974,153.324127 124.029029,153.271267 Z" fill="#222222" stroke="#000000" stroke-width="0.5"/>
							</g>
							<g>
								<path d="M133.806338,154.417148L 134.254447,154.417148 L 134.254447,155.571737 L 133.806338,155.571737 L 133.806338,154.417148 Z" fill="#000000" stroke="#000000" stroke-width="0.5"/>
							</g>
						</g>
						<g transform="matrix(-1,0,0,1,169.09459278,-151.95436519)">
							<g>
								<path d="M124.029029,153.271267C125.517682,153.226811 130.949304,152.96836 133.092958,154.016886 C134.637312,154.772276 131.834726,159.026512 131.019206,159.399322 C130.001582,159.864521 122.594475,159.678038 122.630994,158.234292 C122.690002,155.901509 122.258974,153.324127 124.029029,153.271267 Z" fill="#222222" stroke="#000000" stroke-width="0.5"/>
							</g>
							<g>
								<path d="M133.806338,154.417148L 134.254447,154.417148 L 134.254447,155.571737 L 133.806338,155.571737 L 133.806338,154.417148 Z" fill="#000000" stroke="#000000" stroke-width="0.5"/>
							</g>
						</g>
					</g>
					<g>
						<g transform="matrix(1,0,0,1,-170.000533546,-72.494774305)">
							<path d="M218.543064,74.920992C218.543064,74.920992 218.543064,79.115875 218.543064,79.115875 L 220,82 L 223,83 L 228,83 C229.939774,78.960496 229.939774,78.960496 232,83 L 237,83 L 240,82 L 241.336485,79.115875 C241.336485,79.115875 241.305937,74.920992 241.305937,74.920992 C241.305937,74.920992 218.543064,74.920992 218.543064,74.920992 Z" transform="matrix(1,0,0,1,0.000533546,0)" fill="none" stroke="#000000" stroke-width="0.5" stroke-linecap="round" stroke-linejoin="round"/>
						</g>
						<g transform="matrix(1,0,0,1,-170.000533546,-72.494774305)">
							<g>
								<path d="M224,76.400987C224,76.400987 222,78.982343 222,78.982343 " transform="matrix(1,0,0,1,0,0.599013346)" fill="none" stroke="#000000" stroke-width="0.5" stroke-linecap="round"/>
							</g>
							<g>
								<path d="M226,76C226,76 223.000534,80 223.000534,80 " transform="matrix(1,0,0,1,0,0.599013346)" fill="none" stroke="#000000" stroke-width="0.5" stroke-linecap="round"/>
							</g>
							<g>
								<path d="M224,76.400987C224,76.400987 222,78.982343 222,78.982343 " transform="matrix(1,0,0,1,12.582852643,0.599013346)" fill="none" stroke="#000000" stroke-width="0.5" stroke-linecap="round"/>
							</g>
							<g>
								<path d="M226,76C226,76 223.000534,80 223.000534,80 " transform="matrix(1,0,0,1,12.582852643,0.599013346)" fill="none" stroke="#000000" stroke-width="0.5" stroke-linecap="round"/>
							</g>
						</g>
						<g transform="matrix(1,0,0,1,-170.000533546,-72.494774305)">
							<path d="M218.543598,73.42396L 241.306471,73.42396 L 241.306471,74.920992 L 218.543598,74.920992 L 218.543598,73.42396 Z" transform="matrix(1,0,0,1,0,0)" fill="none" stroke="#000000" stroke-width="0.5"/>
						</g>
					</g>
					<g>
						<g transform="matrix(1,0,0,1,-77.973375632,-135.355755815)">
							<g>
								<path d="M156.991283,145.258647C156.991283,145.258647 147.456024,139.976095 151.663159,136.862815 C154.354131,134.871496 156.506908,138.585037 156.506908,138.585037 C156.506908,138.585037 158.597418,135.363976 161.118794,136.92213 C165.908723,139.882199 156.991283,145.258647 156.991283,145.258647 Z" transform="matrix(1,0,0,1,0,0)" fill="#252525" stroke="#000000" stroke-width="0.5"/>
							</g>
							<g>
								<path d="M162.523147,138.850962C162.523147,138.850962 163.521803,138.850962 163.521803,138.850962 " fill="none" stroke="#000000" stroke-width="0.5"/>
							</g>
						</g>
						<g transform="matrix(-1,0,0,1,249.070230019,-135.355755815)">
							<g>
								<path d="M156.991283,145.258647C156.991283,145.258647 147.456024,139.976095 151.663159,136.862815 C154.354131,134.871496 156.506908,138.585037 156.506908,138.585037 C156.506908,138.585037 158.597418,135.363976 161.118794,136.92213 C165.908723,139.882199 156.991283,145.258647 156.991283,145.258647 Z" transform="matrix(1,0,0,1,0,0)" fill="#252525" stroke="#000000" stroke-width="0.5"/>
							</g>
							<g>
								<path d="M162.523147,138.850962C162.523147,138.850962 163.521803,138.850962 163.521803,138.850962 " fill="none" stroke="#000000" stroke-width="0.5"/>
							</g>
						</g>
					</g>
				</g>
			</g>
		</g>
		<g transform="matrix(1,0,0,-1,0,399.38616626)">
			<g>
				<g>
					<g>
						<g transform="matrix(0,1,1,0,-73.017893542,-114.707923549)">
							<g>
								<path d="M166.191283,74.413607C169.755205,74.399077 173.185144,75.083517 171.416581,79.076181 C170.561248,81.007162 167.879456,83.149234 165.253409,82.720492 C161.057454,82.035438 161.06138,79.875519 161.314338,77.709565 C161.74308,74.038458 163.942716,74.422775 166.191283,74.413607 Z" fill="#000000" stroke="#000000"/>
							</g>
							<g>
								<path d="M171.893126,77.027709C171.893126,77.027709 173.481306,77.027185 173.481306,77.027185 " fill="none" stroke="#000000" stroke-width="0.5"/>
							</g>
						</g>
						<g transform="matrix(0,-1,1,0,-73.017893542,232.254687708)">
							<g>
								<path d="M166.191283,74.413607C169.755205,74.399077 173.185144,75.083517 171.416581,79.076181 C170.561248,81.007162 167.879456,83.149234 165.253409,82.720492 C161.057454,82.035438 161.06138,79.875519 161.314338,77.709565 C161.74308,74.038458 163.942716,74.422775 166.191283,74.413607 Z" fill="#000000" stroke="#000000"/>
							</g>
							<g>
								<path d="M171.893126,77.027709C171.893126,77.027709 173.481306,77.027185 173.481306,77.027185 " fill="none" stroke="#000000" stroke-width="0.5"/>
							</g>
						</g>
					</g>
					<g>
						<g transform="matrix(0,1,1,0,-135.030454492,-78.359226467)">
							<g>
								<path d="M156.991283,145.258647C156.991283,145.258647 147.456024,139.976095 151.663159,136.862815 C154.354131,134.871496 156.506908,138.585037 156.506908,138.585037 C156.506908,138.585037 158.597418,135.363976 161.118794,136.92213 C165.908723,139.882199 156.991283,145.258647 156.991283,145.258647 Z" transform="matrix(1,0,0,1,0,0)" fill="#252525" stroke="#000000" stroke-width="0.5"/>
							</g>
							<g>
								<path d="M162.523147,138.850962C162.523147,138.850962 163.521803,138.850962 163.521803,138.850962 " fill="none" stroke="#000000" stroke-width="0.5"/>
							</g>
						</g>
						<g transform="matrix(0,-1,1,0,-135.030454492,248.684379184)">
							<g>
								<path d="M156.991283,145.258647C156.991283,145.258647 147.456024,139.976095 151.663159,136.862815 C154.354131,134.871496 156.506908,138.585037 156.506908,138.585037 C156.506908,138.585037 158.597418,135.363976 161.118794,136.92213 C165.908723,139.882199 156.991283,145.258647 156.991283,145.258647 Z" transform="matrix(1,0,0,1,0,0)" fill="#252525" stroke="#000000" stroke-width="0.5"/>
							</g>
							<g>
								<path d="M162.523147,138.850962C162.523147,138.850962 163.521803,138.850962 163.521803,138.850962 " fill="none" stroke="#000000" stroke-width="0.5"/>
							</g>
						</g>
					</g>
					<g>
						<g transform="matrix(0.707106781,-0.707106781,0.707106781,0.707106781,-167.28440593,118.125043413)">
							<path d="M199.772739,48.543922C199.772739,48.543922 205.034491,48.543922 205.034491,48.543922 C205.034491,48.543922 213.606216,48.543922 213.606216,48.543922 C213.669834,48.639349 213.606216,53.543922 213.606216,53.543922 C213.606216,53.543922 212.733452,55.543922 212.606216,55.543922 C212.606216,55.543922 203.80723,55.543922 203.80723,55.543922 C203.80723,55.543922 203.393334,53.936547 202.403615,52.74747 C201.413896,53.936547 201,55.543922 201,55.543922 C201,55.543922 192.201013,55.543922 192.201013,55.543922 C192.073778,55.543922 191.201013,53.543922 191.201013,53.543922 C191.201013,53.543922 191.137395,48.639349 191.201013,48.543922 C191.201013,48.543922 199.772739,48.543922 199.772739,48.543922 L 199.772739,48.543922 Z" fill="none" stroke="#000000" stroke-width="0.5"/>
						</g>
						<g transform="matrix(0.707106781,-0.707106781,0.707106781,0.707106781,-167.28440593,118.125043413)">
							<path d="M193,50L 201,50 L 201,52 L 200,54 L 193,54 L 193,50 Z" transform="matrix(1,0,0,1,0,0)" fill="#00fff9" stroke="#000000" stroke-width="0.5" stroke-linejoin="bevel"/>
						</g>
						<g transform="matrix(0.707106781,-0.707106781,0.707106781,0.707106781,-167.28440593,118.125043413)">
							<path d="M205,50L 213,50 L 213,52 L 212,54 L 205,54 L 205,50 Z" transform="matrix(-1,0,0,1,417,0)" fill="#ff005f" stroke="#000000" stroke-width="0.5" stroke-linejoin="bevel"/>
						</g>
					</g>
					<g>
						<g transform="matrix(0,1,-1,0,83.603105652,-168.641633411)">
							<g>
								<path d="M195.027419,73.61517C197.556124,73.61517 199.610194,75.66924 199.610194,78.197946 C199.610194,80.726651 197.556124,82.780721 195.027419,82.780721 C192.498713,82.780721 190.444643,80.726651 190.444643,78.197946 C190.444643,75.66924 192.498713,73.61517 195.027419,73.61517 Z" transform="matrix(1,0,0,1,0,0)" fill="none" stroke="#000000" stroke-width="0.5"/>
							</g>
							<g>
								<path d="M199.610194,78.197946C199.610194,78.197946 201.854247,78.197946 201.854247,78.197946 " fill="none" stroke="#000000" stroke-width="0.5"/>
							</g>
						</g>
						<g transform="matrix(0,-1,-1,0,83.603105652,235.066860266)">
							<g>
								<path d="M195.027419,73.61517C197.556124,73.61517 199.610194,75.66924 199.610194,78.197946 C199.610194,80.726651 197.556124,82.780721 195.027419,82.780721 C192.498713,82.780721 190.444643,80.726651 190.444643,78.197946 C190.444643,75.66924 192.498713,73.61517 195.027419,73.61517 Z" transform="matrix(1,0,0,1,0,0)" fill="none" stroke="#000000" stroke-width="0.5"/>
							</g>
							<g>
								<path d="M199.610194,78.197946C199.610194,78.197946 201.854247,78.197946 201.854247,78.197946 " fill="none" stroke="#000000" stroke-width="0.5"/>
							</g>
						</g>
					</g>
					<g>
						<g transform="matrix(1,0,0,1,-99.41430096,-151.95436519)">
							<g>
								<path d="M124.029029,153.271267C125.517682,153.226811 130.949304,152.96836 133.092958,154.016886 C134.637312,154.772276 131.834726,159.026512 131.019206,159.399322 C130.001582,159.864521 122.594475,159.678038 122.630994,158.234292 C122.690002,155.901509 122.258974,153.324127 124.029029,153.271267 Z" fill="#222222" stroke="#000000" stroke-width="0.5"/>
							</g>
							<g>
								<path d="M133.806338,154.417148L 134.254447,154.417148 L 134.254447,155.571737 L 133.806338,155.571737 L 133.806338,154.417148 Z" fill="#000000" stroke="#000000" stroke-width="0.5"/>
							</g>
						</g>
						<g transform="matrix(-1,0,0,1,169.09459278,-151.95436519)">
							<g>
								<path d="M124.029029,153.271267C125.517682,153.226811 130.949304,152.96836 133.092958,154.016886 C134.637312,154.772276 131.834726,159.026512 131.019206,159.399322 C130.001582,159.864521 122.594475,159.678038 122.630994,158.234292 C122.690002,155.901509 122.258974,153.324127 124.029029,153.271267 Z" fill="#222222" stroke="#000000" stroke-width="0.5"/>
							</g>
							<g>
								<path d="M133.806338,154.417148L 134.254447,154.417148 L 134.254447,155.571737 L 133.806338,155.571737 L 133.806338,154.417148 Z" fill="#000000" stroke="#000000" stroke-width="0.5"/>
							</g>
						</g>
					</g>
					<g>
						<g transform="matrix(1,0,0,1,-170.000533546,-72.494774305)">
							<path d="M218.543064,74.920992C218.543064,74.920992 218.543064,79.115875 218.543064,79.115875 L 220,82 L 223,83 L 228,83 C229.939774,78.960496 229.939774,78.960496 232,83 L 237,83 L 240,82 L 241.336485,79.115875 C241.336485,79.115875 241.305937,74.920992 241.305937,74.920992 C241.305937,74.920992 218.543064,74.920992 218.543064,74.920992 Z" transform="matrix(1,0,0,1,0.000533546,0)" fill="none" stroke="#000000" stroke-width="0.5" stroke-linecap="round" stroke-linejoin="round"/>
						</g>
						<g transform="matrix(1,0,0,1,-170.000533546,-72.494774305)">
							<g>
								<path d="M224,76.400987C224,76.400987 222,78.982343 222,78.982343 " transform="matrix(1,0,0,1,0,0.599013346)" fill="none" stroke="#000000" stroke-width="0.5" stroke-linecap="round"/>
							</g>
							<g>
								<path d="M226,76C226,76 223.000534,80 223.000534,80 " transform="matrix(1,0,0,1,0,0.599013346)" fill="none" stroke="#000000" stroke-width="0.5" stroke-linecap="round"/>
							</g>
							<g>
								<path d="M224,76.400987C224,76.400987 222,78.982343 222,78.982343 " transform="matrix(1,0,0,1,12.582852643,0.599013346)" fill="none" stroke="#000000" stroke-width="0.5" stroke-linecap="round"/>
							</g>
							<g>
								<path d="M226,76C226,76 223.000534,80 223.000534,80 " transform="matrix(1,0,0,1,12.582852643,0.599013346)" fill="none" stroke="#000000" stroke-width="0.5" stroke-linecap="round"/>
							</g>
						</g>
						<g transform="matrix(1,0,0,1,-170.000533546,-72.494774305)">
							<path d="M218.543598,73.42396L 241.306471,73.42396 L 241.306471,74.920992 L 218.543598,74.920992 L 218.543598,73.42396 Z" transform="matrix(1,0,0,1,0,0)" fill="none" stroke="#000000" stroke-width="0.5"/>
						</g>
					</g>
					<g>
						<g transform="matrix(1,0,0,1,-77.973375632,-135.355755815)">
							<g>
								<path d="M156.991283,145.258647C156.991283,145.258647 147.456024,139.976095 151.663159,136.862815 C154.354131,134.871496 156.506908,138.585037 156.506908,138.585037 C156.506908,138.585037 158.597418,135.363976 161.118794,136.92213 C165.908723,139.882199 156.991283,145.258647 156.991283,145.258647 Z" transform="matrix(1,0,0,1,0,0)" fill="#252525" stroke="#000000" stroke-width="0.5"/>
							</g>
							<g>
								<path d="M162.523147,138.850962C162.523147,138.850962 163.521803,138.850962 163.521803,138.850962 " fill="none" stroke="#000000" stroke-width="0.5"/>
							</g>
						</g>
						<g transform="matrix(-1,0,0,1,249.070230019,-135.355755815)">
							<g>
								<path d="M156.991283,145.258647C156.991283,145.258647 147.456024,139.976095 151.663159,136.862815 C154.354131,134.871496 156.506908,138.585037 156.506908,138.585037 C156.506908,138.585037 158.597418,135.363976 161.118794,136.92213 C165.908723,139.882199 156.991283,145.258647 156.991283,145.258647 Z" transform="matrix(1,0,0,1,0,0)" fill="#252525" stroke="#000000" stroke-width="0.5"/>
							</g>
							<g>
								<path d="M162.523147,138.850962C162.523147,138.850962 163.521803,138.850962 163.521803,138.850962 " fill="none" stroke="#000000" stroke-width="0.5"/>
							</g>
						</g>
					</g>
				</g>
				<g transform="matrix(-1,0,0,1,399.301318542,0)">
					<g>
						<g transform="matrix(0,1,1,0,-73.017893542,-114.707923549)">
							<g>
								<path d="M166.191283,74.413607C169.755205,74.399077 173.185144,75.083517 171.416581,79.076181 C170.561248,81.007162 167.879456,83.149234 165.253409,82.720492 C161.057454,82.035438 161.06138,79.875519 161.314338,77.709565 C161.74308,74.038458 163.942716,74.422775 166.191283,74.413607 Z" fill="#000000" stroke="#000000"/>
							</g>
							<g>
								<path d="M171.893126,77.027709C171.893126,77.027709 173.481306,77.027185 173.481306,77.027185 " fill="none" stroke="#000000" stroke-width="0.5"/>
							</g>
						</g>
						<g transform="matrix(0,-1,1,0,-73.017893542,232.254687708)">
							<g>
								<path d="M166.191283,74.413607C169.755205,74.399077 173.185144,75.083517 171.416581,79.076181 C170.561248,81.007162 167.879456,83.149234 165.253409,82.720492 C161.057454,82.035438 161.06138,79.875519 161.314338,77.709565 C161.74308,74.038458 163.942716,74.422775 166.191283,74.413607 Z" fill="#000000" stroke="#000000"/>
							</g>
							<g>
								<path d="M171.893126,77.027709C171.893126,77.027709 173.481306,77.027185 173.481306,77.027185 " fill="none" stroke="#000000" stroke-width="0.5"/>
							</g>
						</g>
					</g>
					<g>
						<g transform="matrix(0,1,1,0,-135.030454492,-78.359226467)">
							<g>
								<path d="M156.991283,145.258647C156.991283,145.258647 147.456024,139.976095 151.663159,136.862815 C154.354131,134.871496 156.506908,138.585037 156.506908,138.585037 C156.506908,138.585037 158.597418,135.363976 161.118794,136.92213 C165.908723,139.882199 156.991283,145.258647 156.991283,145.258647 Z" transform="matrix(1,0,0,1,0,0)" fill="#252525" stroke="#000000" stroke-width="0.5"/>
							</g>
							<g>
								<path d="M162.523147,138.850962C162.523147,138.850962 163.521803,138.850962 163.521803,138.850962 " fill="none" stroke="#000000" stroke-width="0.5"/>
							</g>
						</g>
						<g transform="matrix(0,-1,1,0,-135.030454492,248.684379184)">
							<g>
								<path d="M156.991283,145.258647C156.991283,145.258647 147.456024,139.976095 151.663159,136.862815 C154.354131,134.871496 156.506908,138.585037 156.506908,138.585037 C156.506908,138.585037 158.597418,135.363976 161.118794,136.92213 C165.908723,139.882199 156.991283,145.258647 156.991283,145.258647 Z" transform="matrix(1,0,0,1,0,0)" fill="#252525" stroke="#000000" stroke-width="0.5"/>
							</g>
							<g>
								<path d="M162.523147,138.850962C162.523147,138.850962 163.521803,138.850962 163.521803,138.850962 " fill="none" stroke="#000000" stroke-width="0.5"/>
							</g>
						</g>
					</g>
					<g>
						<g transform="matrix(0.707106781,-0.707106781,0.707106781,0.707106781,-167.28440593,118.125043413)">
							<path d="M199.772739,48.543922C199.772739,48.543922 205.034491,48.543922 205.034491,48.543922 C205.034491,48.543922 213.606216,48.543922 213.606216,48.543922 C213.669834,48.639349 213.606216,53.543922 213.606216,53.543922 C213.606216,53.543922 212.733452,55.543922 212.606216,55.543922 C212.606216,55.543922 203.80723,55.543922 203.80723,55.543922 C203.80723,55.543922 203.393334,53.936547 202.403615,52.74747 C201.413896,53.936547 201,55.543922 201,55.543922 C201,55.543922 192.201013,55.543922 192.201013,55.543922 C192.073778,55.543922 191.201013,53.543922 191.201013,53.543922 C191.201013,53.543922 191.137395,48.639349 191.201013,48.543922 C191.201013,48.543922 199.772739,48.543922 199.772739,48.543922 L 199.772739,48.543922 Z" fill="none" stroke="#000000" stroke-width="0.5"/>
						</g>
						<g transform="matrix(0.707106781,-0.707106781,0.707106781,0.707106781,-167.28440593,118.125043413)">
							<path d="M193,50L 201,50 L 201,52 L 200,54 L 193,54 L 193,50 Z" transform="matrix(1,0,0,1,0,0)" fill="#00fff9" stroke="#000000" stroke-width="0.5" stroke-linejoin="bevel"/>
						</g>
						<g transform="matrix(0.707106781,-0.707106781,0.707106781,0.707106781,-167.28440593,118.125043413)">
							<path d="M205,50L 213,50 L 213,52 L 212,54 L 205,54 L 205,50 Z" transform="matrix(-1,0,0,1,417,0)" fill="#ff005f" stroke="#000000" stroke-width="0.5" stroke-linejoin="bevel"/>
						</g>
					</g>
					<g>
						<g transform="matrix(0,1,-1,0,83.603105652,-168.641633411)">
							<g>
								<path d="M195.027419,73.61517C197.556124,73.61517 199.610194,75.66924 199.610194,78.197946 C199.610194,80.726651 197.556124,82.780721 195.027419,82.780721 C192.498713,82.780721 190.444643,80.726651 190.444643,78.197946 C190.444643,75.66924 192.498713,73.61517 195.027419,73.61517 Z" transform="matrix(1,0,0,1,0,0)" fill="none" stroke="#000000" stroke-width="0.5"/>
							</g>
							<g>
								<path d="M199.610194,78.197946C199.610194,78.197946 201.854247,78.197946 201.854247,78.197946 " fill="none" stroke="#000000" stroke-width="0.5"/>
							</g>
						</g>
						<g transform="matrix(0,-1,-1,0,83.603105652,235.066860266)">
							<g>
								<path d="M195.027419,73.61517C197.556124,73.61517 199.610194,75.66924 199.610194,78.197946 C199.610194,80.726651 197.556124,82.780721 195.027419,82.780721 C192.498713,82.780721 190.444643,80.726651 190.444643,78.197946 C190.444643,75.66924 192.498713,73.61517 195.027419,73.61517 Z" transform="matrix(1,0,0,1,0,0)" fill="none" stroke="#000000" stroke-width="0.5"/>
							</g>
							<g>
								<path d="M199.610194,78.197946C199.610194,78.197946 201.854247,78.197946 201.854247,78.197946 " fill="none" stroke="#000000" stroke-width="0.5"/>
							</g>
						</g>
					</g>
					<g>
						<g transform="matrix(1,0,0,1,-99.41430096,-151.95436519)">
							<g>
								<path d="M124.029029,153.271267C125.517682,153.226811 130.949304,152.96836 133.092958,154.016886 C134.637312,154.772276 131.834726,159.026512 131.019206,159.399322 C130.001582,159.864521 122.594475,159.678038 122.630994,158.234292 C122.690002,155.901509 122.258974,153.324127 124.029029,153.271267 Z" fill="#222222" stroke="#000000" stroke-width="0.5"/>
							</g>
							<g>
								<path d="M133.806338,154.417148L 134.254447,154.417148 L 134.254447,155.571737 L 133.806338,155.571737 L 133.806338,154.417148 Z" fill="#000000" stroke="#000000" stroke-width="0.5"/>
							</g>
						</g>
						<g transform="matrix(-1,0,0,1,169.09459278,-151.95436519)">
							<g>
								<path d="M124.029029,153.271267C125.517682,153.226811 130.949304,152.96836 133.092958,154.016886 C134.637312,154.772276 131.834726,159.026512 131.019206,159.399322 C130.001582,159.864521 122.594475,159.678038 122.630994,158.234292 C122.690002,155.901509 122.258974,153.324127 124.029029,153.271267 Z" fill="#222222" stroke="#000000" stroke-width="0.5"/>
							</g>
							<g>
								<path d="M133.806338,154.417148L 134.254447,154.417148 L 134.254447,155.571737 L 133.806338,155.571737 L 133.806338,154.417148 Z" fill="#000000" stroke="#000000" stroke-width="0.5"/>
							</g>
						</g>
					</g>
					<g>
						<g transform="matrix(1,0,0,1,-170.000533546,-72.494774305)">
							<path d="M218.543064,74.920992C218.543064,74.920992 218.543064,79.115875 218.543064,79.115875 L 220,82 L 223,83 L 228,83 C229.939774,78.960496 229.939774,78.960496 232,83 L 237,83 L 240,82 L 241.336485,79.115875 C241.336485,79.115875 241.305937,74.920992 241.305937,74.920992 C241.305937,74.920992 218.543064,74.920992 218.543064,74.920992 Z" transform="matrix(1,0,0,1,0.000533546,0)" fill="none" stroke="#000000" stroke-width="0.5" stroke-linecap="round" stroke-linejoin="round"/>
						</g>
						<g transform="matrix(1,0,0,1,-170.000533546,-72.494774305)">
							<g>
								<path d="M224,76.400987C224,76.400987 222,78.982343 222,78.982343 " transform="matrix(1,0,0,1,0,0.599013346)" fill="none" stroke="#000000" stroke-width="0.5" stroke-linecap="round"/>
							</g>
							<g>
								<path d="M226,76C226,76 223.000534,80 223.000534,80 " transform="matrix(1,0,0,1,0,0.599013346)" fill="none" stroke="#000000" stroke-width="0.5" stroke-linecap="round"/>
							</g>
							<g>
								<path d="M224,76.400987C224,76.400987 222,78.982343 222,78.982343 " transform="matrix(1,0,0,1,12.582852643,0.599013346)" fill="none" stroke="#000000" stroke-width="0.5" stroke-linecap="round"/>
							</g>
							<g>
								<path d="M226,76C226,76 223.000534,80 223.000534,80 " transform="matrix(1,0,0,1,12.582852643,0.599013346)" fill="none" stroke="#000000" stroke-width="0.5" stroke-linecap="round"/>
							</g>
						</g>
						<g transform="matrix(1,0,0,1,-170.000533546,-72.494774305)">
							<path d="M218.543598,73.42396L 241.306471,73.42396 L 241.306471,74.920992 L 218.543598,74.920992 L 218.543598,73.42396 Z" transform="matrix(1,0,0,1,0,0)" fill="none" stroke="#000000" stroke-width="0.5"/>
						</g>
					</g>
					<g>
						<g transform="matrix(1,0,0,1,-77.973375632,-135.355755815)">
							<g>
								<path d="M156.991283,145.258647C156.991283,145.258647 147.456024,139.976095 151.663159,136.862815 C154.354131,134.871496 156.506908,138.585037 156.506908,138.585037 C156.506908,138.585037 158.597418,135.363976 161.118794,136.92213 C165.908723,139.882199 156.991283,145.258647 156.991283,145.258647 Z" transform="matrix(1,0,0,1,0,0)" fill="#252525" stroke="#000000" stroke-width="0.5"/>
							</g>
							<g>
								<path d="M162.523147,138.850962C162.523147,138.850962 163.521803,138.850962 163.521803,138.850962 " fill="none" stroke="#000000" stroke-width="0.5"/>
							</g>
						</g>
						<g transform="matrix(-1,0,0,1,249.070230019,-135.355755815)">
							<g>
								<path d="M156.991283,145.258647C156.991283,145.258647 147.456024,139.976095 151.663159,136.862815 C154.354131,134.871496 156.506908,138.585037 156.506908,138.585037 C156.506908,138.585037 158.597418,135.363976 161.118794,136.92213 C165.908723,139.882199 156.991283,145.258647 156.991283,145.258647 Z" transform="matrix(1,0,0,1,0,0)" fill="#252525" stroke="#000000" stroke-width="0.5"/>
							</g>
							<g>
								<path d="M162.523147,138.850962C162.523147,138.850962 163.521803,138.850962 163.521803,138.850962 " fill="none" stroke="#000000" stroke-width="0.5"/>
							</g>
						</g>
					</g>
				</g>
			</g>
		</g>
	</g>
	<g>
		<path d="M-0,-0L 400,-0 L 400,400 L -0,400 L -0,-0 Z" fill="none"/>
	</g>
</g></g></svg>